{"glyphs":{"0":{"ha":625,"x_min":-3,"x_max":628,"o":"m 435 915 q 582 382 626 788 q 569 303 576 342 q 550 222 563 264 q 519 142 538 179 q 477 72 501 106 q 420 13 453 39 q 349 -25 388 -12 q 243 -37 299 -44 q 146 3 188 -31 q 44 214 68 65 q 118 774 -3 504 q 186 900 151 847 q 271 976 224 957 q 376 981 325 1000 q 422 921 431 960 q 435 915 429 918 m 471 504 q 433 743 475 653 q 378 829 414 788 q 363 844 375 833 q 347 864 351 856 q 342 882 342 872 q 328 874 335 881 q 317 863 321 868 q 306 845 313 857 q 299 831 300 833 q 263 763 281 799 q 207 608 229 689 q 174 326 168 467 q 193 186 176 251 q 267 68 219 79 q 375 139 315 57 q 432 253 411 189 q 471 504 465 351 z "},"1":{"ha":457,"x_min":67,"x_max":440,"o":"m 389 750 q 339 242 346 497 q 338 115 338 179 q 338 84 338 108 q 339 47 339 60 q 335 26 339 35 q 297 -1 324 6 q 249 0 269 -8 q 230 8 238 3 q 217 22 222 14 q 210 37 213 29 q 206 56 207 44 q 206 74 206 67 q 206 95 206 82 q 206 114 206 108 q 213 369 204 243 q 278 824 226 569 q 217 726 242 775 q 197 686 207 710 q 178 638 188 663 q 160 596 168 614 q 113 569 147 571 q 71 599 79 568 q 76 640 68 608 q 99 707 83 672 q 163 826 122 764 q 342 1022 219 914 q 343 1024 342 1024 q 398 1034 363 1040 q 438 1001 433 1028 q 431 949 439 993 q 418 886 426 924 q 389 750 394 779 z "},"2":{"ha":606,"x_min":64,"x_max":586,"o":"m 558 913 q 581 841 576 879 q 574 759 585 803 q 554 688 564 715 q 525 614 544 660 q 290 160 456 443 q 483 144 390 171 q 498 140 493 142 q 511 135 503 139 q 524 128 519 132 q 534 119 529 125 q 542 107 539 114 q 532 53 556 76 q 488 32 513 33 q 428 42 464 31 q 381 54 392 53 q 279 47 329 60 q 253 38 267 43 q 232 28 240 32 q 208 15 224 24 q 185 3 192 6 q 122 -7 160 -14 q 72 31 83 0 q 88 92 64 53 q 139 176 124 151 q 339 544 258 379 q 418 736 393 656 q 429 785 425 760 q 435 841 433 810 q 420 886 436 872 q 372 888 404 900 q 295 832 328 871 q 249 746 263 793 q 243 719 244 733 q 240 689 242 706 q 236 663 238 672 q 218 633 233 643 q 178 627 201 624 q 143 646 154 631 q 133 704 132 661 q 147 772 136 739 q 219 897 168 842 q 338 976 271 951 q 421 990 381 989 q 499 972 461 992 q 558 913 538 951 z "},"3":{"ha":600,"x_min":14,"x_max":581,"o":"m 428 668 q 500 617 471 647 q 560 516 540 575 q 579 399 581 457 q 565 282 578 342 q 472 97 539 176 q 304 8 404 18 q 200 23 250 1 q 117 88 150 44 q 79 178 86 129 q 96 256 72 239 q 132 265 111 265 q 168 256 153 265 q 181 240 176 250 q 188 222 186 231 q 193 199 190 213 q 199 179 196 186 q 275 103 225 107 q 378 165 331 99 q 433 294 417 221 q 440 435 450 367 q 394 550 432 506 q 325 582 357 592 q 287 544 306 575 q 251 506 268 513 q 188 501 224 492 q 146 535 153 511 q 175 610 138 561 q 292 826 253 710 q 282 921 317 901 q 226 919 257 935 q 172 876 196 903 q 121 758 132 832 q 118 688 115 725 q 114 658 119 665 q 61 643 97 635 q 39 656 47 646 q 28 674 31 665 q 25 700 26 682 q 44 850 14 776 q 138 969 74 924 q 283 1011 203 1015 q 377 977 336 1007 q 426 897 418 947 q 419 799 435 849 q 371 686 403 749 q 428 668 401 681 z "},"4":{"ha":549,"x_min":25,"x_max":508,"o":"m 454 819 q 476 813 467 818 q 489 796 485 807 q 495 776 493 785 q 499 751 497 767 q 504 397 508 643 q 501 226 504 331 q 499 132 500 190 q 496 61 496 64 q 476 15 492 35 q 435 -10 460 -4 q 388 -1 410 -14 q 357 36 367 13 q 351 100 350 50 q 353 139 353 111 q 354 182 354 167 q 360 349 357 265 q 178 319 261 301 q 100 353 135 329 q 46 414 65 378 q 26 506 28 451 q 32 601 25 560 q 51 829 44 767 q 67 938 58 886 q 67 947 67 940 q 69 958 68 954 q 71 968 69 963 q 74 978 72 974 q 79 987 76 982 q 85 994 82 992 q 126 1012 101 1010 q 168 1001 150 1014 q 185 958 185 989 q 185 853 186 917 q 169 624 183 792 q 165 511 164 554 q 207 424 167 442 q 238 418 225 419 q 271 424 251 417 q 303 438 290 432 q 335 455 317 444 q 365 469 354 465 q 393 782 374 664 q 393 785 393 783 q 416 813 399 803 q 454 819 433 822 z "},"5":{"ha":565,"x_min":-7,"x_max":546,"o":"m 354 601 q 497 481 449 568 q 538 292 546 393 q 471 115 529 192 q 351 23 422 53 q 201 0 279 -7 q 65 50 121 8 q 43 140 -7 103 q 104 153 69 161 q 138 135 118 150 q 163 117 158 119 q 252 98 206 93 q 336 135 299 103 q 406 260 389 182 q 397 403 422 338 q 336 492 378 457 q 243 515 294 526 q 185 483 222 513 q 118 457 149 453 q 69 486 83 463 q 63 508 64 496 q 65 540 63 521 q 68 563 68 558 q 81 768 74 672 q 88 875 83 804 q 93 921 89 903 q 93 953 85 938 q 131 975 104 968 q 147 979 138 978 q 181 982 158 981 q 426 978 294 992 q 447 976 429 978 q 472 974 465 975 q 492 967 479 972 q 511 956 504 963 q 517 900 538 929 q 463 878 500 878 q 401 883 440 878 q 349 888 363 888 q 219 892 290 892 q 214 892 218 892 q 211 854 214 878 q 208 824 208 831 q 205 756 207 799 q 201 676 203 713 q 199 610 200 640 q 354 601 276 628 z "},"6":{"ha":607,"x_min":24,"x_max":594,"o":"m 278 524 q 433 522 356 550 q 554 424 510 494 q 592 290 590 365 q 565 153 594 215 q 482 43 536 88 q 360 -12 428 -1 q 226 8 289 -22 q 121 99 164 39 q 33 403 43 211 q 83 743 25 572 q 251 974 143 917 q 374 1000 315 1007 q 432 980 403 996 q 465 940 461 964 q 449 903 469 918 q 406 889 429 889 q 388 888 399 888 q 371 889 378 889 q 355 888 364 889 q 338 884 346 888 q 322 875 331 881 q 267 807 293 854 q 178 461 183 664 q 278 524 225 503 m 421 128 q 474 213 456 165 q 488 311 492 261 q 472 371 485 342 q 435 422 458 400 q 381 451 411 444 q 228 365 311 468 q 197 324 204 335 q 193 316 194 319 q 192 308 192 313 q 192 301 192 304 q 192 294 192 299 q 194 287 193 289 q 196 279 194 285 q 197 271 197 274 q 235 165 213 207 q 306 92 265 110 q 421 128 358 68 z "},"7":{"ha":626,"x_min":67,"x_max":558,"o":"m 543 957 q 553 944 550 951 q 556 924 557 936 q 553 908 554 913 q 547 887 553 903 q 542 871 542 871 q 512 788 532 840 q 485 714 492 735 q 436 560 465 657 q 490 544 468 557 q 504 508 511 532 q 410 467 494 469 q 347 196 375 340 q 328 82 333 129 q 304 10 321 32 q 242 -17 282 -19 q 189 21 203 -14 q 192 106 178 47 q 199 142 194 122 q 207 183 203 161 q 214 219 211 204 q 272 463 239 338 q 179 476 207 460 q 176 481 178 478 q 167 515 163 497 q 192 544 171 533 q 217 553 201 550 q 242 556 232 556 q 273 556 253 556 q 299 556 293 556 q 413 885 363 768 q 337 882 385 883 q 249 880 289 881 q 172 881 208 879 q 164 881 169 881 q 149 881 154 881 q 132 881 143 881 q 115 883 121 882 q 97 887 108 885 q 83 893 86 889 q 74 903 81 897 q 69 915 67 908 q 74 932 72 922 q 124 958 82 953 q 244 964 165 963 q 367 967 254 964 q 429 968 428 968 q 468 968 467 967 q 543 957 513 982 z "},"8":{"ha":594,"x_min":-4,"x_max":574,"o":"m 494 975 q 568 790 574 921 q 517 544 564 671 q 465 433 494 485 q 406 388 440 392 q 469 157 494 274 q 424 61 458 103 q 340 4 390 19 q 234 2 286 -11 q 140 51 182 15 q 70 153 93 93 q 50 273 47 213 q 80 392 53 333 q 154 489 107 450 q 42 810 -4 657 q 141 940 67 892 q 311 1004 215 988 q 494 975 426 1022 m 326 144 q 326 276 354 213 q 238 404 299 340 q 188 236 175 332 q 217 151 193 190 q 279 101 242 111 q 326 144 306 99 m 422 740 q 425 758 422 742 q 428 778 428 774 q 429 798 428 783 q 431 819 431 813 q 430 840 431 826 q 427 860 429 853 q 421 878 425 868 q 411 894 417 888 q 325 915 390 922 q 218 876 264 908 q 149 772 161 836 q 171 647 138 707 q 194 607 181 626 q 227 567 207 588 q 258 534 247 546 q 297 498 269 522 q 331 467 324 474 q 422 740 404 611 z "},"9":{"ha":567,"x_min":14,"x_max":544,"o":"m 456 947 q 519 885 493 924 q 531 810 544 847 q 522 797 529 804 q 515 790 515 790 q 510 774 511 783 q 509 751 508 765 q 510 733 510 738 q 506 610 508 699 q 501 499 504 572 q 497 388 499 425 q 482 200 492 250 q 410 49 464 113 q 274 -25 357 -15 q 138 8 197 -35 q 97 57 113 28 q 86 114 82 86 q 113 146 90 136 q 158 150 136 156 q 196 124 179 146 q 242 88 210 103 q 290 108 268 83 q 324 163 311 132 q 344 257 339 200 q 357 468 350 313 q 164 350 267 339 q 74 399 107 357 q 33 503 42 442 q 68 790 14 664 q 217 957 117 907 q 337 983 274 986 q 456 947 400 981 m 301 604 q 357 735 338 671 q 367 776 363 754 q 376 823 372 797 q 383 863 381 849 q 320 880 350 883 q 264 853 290 876 q 219 802 238 831 q 189 743 200 774 q 164 594 167 682 q 163 523 160 567 q 185 454 167 479 q 301 604 243 500 z "},"\u0000":{"ha":0,"x_min":0,"x_max":0,"o":""},"\n":{"ha":0,"x_min":0,"x_max":0,"o":""},"\r":{"ha":0,"x_min":0,"x_max":0,"o":""}," ":{"ha":365,"x_min":0,"x_max":0,"o":""},"!":{"ha":258,"x_min":35,"x_max":219,"o":"m 207 1007 q 217 957 215 986 q 217 906 218 928 q 215 776 217 815 q 204 514 213 714 q 200 402 203 481 q 196 282 197 324 q 182 172 192 200 q 153 142 175 151 q 93 138 126 128 q 51 178 60 147 q 47 204 49 189 q 47 230 46 219 q 49 258 47 240 q 50 285 50 276 q 51 310 51 296 q 52 335 51 324 q 53 360 53 346 q 54 386 54 375 q 79 861 72 764 q 89 964 88 951 q 114 1022 96 1006 q 164 1038 135 1042 q 206 1008 193 1033 q 207 1007 207 1008 m 153 88 q 171 51 171 72 q 151 14 171 29 q 104 -2 132 -1 q 56 13 76 -3 q 36 49 38 26 q 53 86 35 71 q 101 103 75 103 q 150 89 126 103 q 153 88 151 89 z "},"\"":{"ha":411,"x_min":18,"x_max":389,"o":"m 324 1007 q 386 864 388 981 q 332 703 386 765 q 296 674 318 686 q 249 660 274 661 q 211 682 224 660 q 206 696 207 689 q 206 708 206 703 q 211 722 207 714 q 217 735 215 731 q 225 748 219 739 q 232 758 231 757 q 257 910 275 831 q 252 931 257 914 q 246 956 247 949 q 247 976 244 964 q 258 999 250 989 q 322 1007 279 1021 q 324 1007 322 1007 m 136 1007 q 200 864 201 981 q 144 703 199 765 q 109 674 131 686 q 63 660 88 661 q 24 682 38 660 q 20 696 21 689 q 20 708 19 703 q 25 722 21 714 q 31 735 29 731 q 39 748 33 739 q 46 758 44 757 q 71 910 88 831 q 66 927 69 915 q 61 947 63 939 q 59 964 60 954 q 61 983 58 974 q 71 999 64 992 q 135 1007 92 1021 q 136 1007 136 1007 z "},"#":{"ha":857,"x_min":8,"x_max":843,"o":"m 842 646 q 819 616 838 622 q 768 608 800 610 q 715 608 744 608 q 654 606 686 607 q 601 604 622 604 q 601 479 601 565 q 771 481 743 482 q 776 481 772 481 q 805 478 794 479 q 828 468 815 476 q 840 443 840 460 q 836 422 842 431 q 817 410 831 414 q 796 405 803 406 q 774 404 789 404 q 687 402 756 401 q 600 403 618 403 q 601 303 600 401 q 600 203 601 204 q 578 144 600 167 q 522 124 557 121 q 473 146 492 125 q 453 197 454 167 q 454 399 451 214 q 321 392 400 396 q 318 297 318 329 q 317 276 318 288 q 317 256 317 265 q 316 235 317 246 q 314 214 315 224 q 280 168 307 183 q 222 161 253 153 q 168 238 171 174 q 171 299 167 246 q 174 382 171 314 q 51 378 81 374 q 31 383 40 379 q 16 395 22 388 q 10 414 10 403 q 63 454 8 446 q 176 465 106 463 q 177 506 176 481 q 178 551 178 531 q 181 592 179 572 q 78 594 100 589 q 43 631 43 603 q 53 655 43 644 q 78 668 64 665 q 183 675 103 672 q 183 714 183 688 q 184 756 183 740 q 187 794 185 772 q 192 833 189 815 q 258 903 206 904 q 306 885 286 901 q 329 840 325 868 q 331 772 332 828 q 329 679 331 732 q 457 681 397 679 q 469 857 460 813 q 529 900 479 900 q 590 853 581 901 q 600 685 599 806 q 681 686 622 685 q 772 688 740 688 q 842 653 835 689 q 842 649 843 651 q 842 646 843 647 m 454 568 q 456 600 454 579 q 326 596 400 599 q 324 472 325 554 q 454 476 381 475 l 454 568 z "},"$":{"ha":629,"x_min":4,"x_max":628,"o":"m 565 1003 q 613 843 628 931 q 588 803 608 817 q 539 792 568 790 q 493 806 514 793 q 472 842 472 818 q 469 881 471 869 q 461 912 468 893 q 440 944 454 931 q 386 976 415 972 q 379 661 383 907 q 378 593 378 629 q 376 571 378 586 q 374 548 375 556 q 376 528 374 540 q 383 515 378 521 q 401 501 389 508 q 414 492 413 493 q 446 468 439 474 q 557 343 535 399 q 567 250 575 292 q 524 173 558 208 q 451 114 490 138 q 367 76 411 90 q 367 63 367 72 q 367 49 367 54 q 367 34 367 43 q 366 19 367 25 q 363 6 365 14 q 359 -6 361 -1 q 353 -17 357 -11 q 344 -26 349 -22 q 332 -32 339 -29 q 317 -35 325 -35 q 283 -28 296 -36 q 267 -6 271 -19 q 263 26 264 8 q 263 60 261 43 q 72 126 144 57 q 21 275 6 189 q 55 347 28 314 q 118 385 82 379 q 182 361 161 389 q 176 306 201 333 q 163 206 132 254 q 265 160 192 157 q 268 308 267 249 q 268 381 268 347 q 268 419 268 399 q 268 458 269 453 q 258 471 265 464 q 242 485 251 478 q 231 496 233 493 q 197 533 213 514 q 142 614 164 572 q 94 800 93 707 q 147 965 96 890 q 281 1072 197 1040 q 285 1139 282 1110 q 292 1176 288 1168 q 333 1200 304 1199 q 351 1198 343 1200 q 365 1191 360 1196 q 375 1182 371 1186 q 381 1168 379 1178 q 385 1153 383 1158 q 387 1137 386 1149 q 388 1121 388 1125 q 388 1103 388 1117 q 388 1089 388 1090 q 565 1003 499 1082 m 272 644 q 278 924 278 878 q 265 908 271 915 q 272 644 189 796 m 435 304 q 372 381 421 343 q 368 190 369 247 q 435 304 453 239 z "},"%":{"ha":781,"x_min":61,"x_max":768,"o":"m 385 811 q 329 725 372 758 q 232 690 286 692 q 141 715 183 689 q 81 785 99 740 q 75 882 63 835 q 124 968 88 929 q 214 1014 164 1014 q 261 1001 240 1014 q 277 988 267 997 q 294 975 288 978 q 349 935 326 960 q 382 878 372 910 q 385 811 392 846 m 210 788 q 244 786 229 778 q 267 813 258 794 q 218 911 292 871 q 188 847 190 883 q 210 788 186 804 m 679 865 q 543 583 647 794 q 483 460 522 542 q 419 329 443 379 q 359 210 394 279 q 293 83 324 142 q 174 15 240 -12 q 151 31 158 21 q 142 53 143 40 q 142 76 140 65 q 149 103 143 88 q 160 130 156 119 q 174 156 165 140 q 185 175 182 171 q 435 675 294 399 q 561 918 490 783 q 574 944 563 921 q 591 975 586 967 q 608 1001 596 983 q 631 1026 621 1019 q 656 1040 640 1033 q 688 1043 671 1046 q 690 1044 689 1044 q 692 1043 690 1043 q 726 985 736 1029 q 679 865 721 954 m 761 238 q 751 144 767 193 q 704 63 736 96 q 622 24 669 28 q 536 49 575 19 q 485 133 496 79 q 488 232 474 186 q 538 339 507 308 q 551 350 543 346 q 569 358 560 354 q 583 367 578 363 q 622 382 604 381 q 624 382 622 382 q 626 382 625 382 q 677 368 653 381 q 718 335 701 356 q 746 290 735 315 q 761 238 757 265 m 611 124 q 624 276 667 221 q 601 208 611 250 q 611 124 589 154 z "},"&":{"ha":858,"x_min":1,"x_max":792,"o":"m 788 349 q 786 327 790 338 q 773 310 782 317 q 753 300 764 303 q 737 296 746 297 q 717 294 728 294 q 700 293 707 293 q 640 278 671 288 q 531 213 585 257 q 610 104 544 192 q 608 43 642 63 q 538 58 575 24 q 463 146 504 92 q 405 88 428 108 q 344 45 382 67 q 267 19 306 24 q 149 40 207 14 q 54 115 90 67 q 11 222 19 161 q 19 339 3 283 q 161 558 49 447 q 215 608 183 581 q 219 613 217 610 q 224 617 222 615 q 227 620 225 618 q 230 624 229 622 q 231 631 231 626 q 228 639 229 635 q 226 649 228 643 q 224 657 224 654 q 206 772 207 726 q 294 957 200 900 q 390 985 338 983 q 488 963 442 986 q 559 880 536 933 q 560 774 582 826 q 486 678 544 736 q 369 572 453 646 q 356 558 358 563 q 358 540 354 554 q 371 507 364 524 q 399 438 383 471 q 464 313 429 369 q 731 386 589 381 q 754 382 743 386 q 775 369 765 378 q 788 349 785 361 m 313 843 q 315 696 296 792 q 381 753 369 743 q 386 758 382 754 q 402 774 396 768 q 417 788 408 779 q 430 807 425 797 q 438 826 435 817 q 428 879 443 853 q 385 906 413 906 q 354 896 369 906 q 329 873 339 886 q 313 843 319 860 m 336 203 q 388 257 367 238 q 275 486 318 372 q 156 243 146 360 q 178 176 158 207 q 229 135 197 144 q 246 133 236 131 q 261 135 256 135 q 276 143 267 136 q 290 153 285 150 q 303 165 294 157 q 315 178 311 174 q 326 192 319 183 q 336 203 333 200 z "},"'":{"ha":224,"x_min":18,"x_max":201,"o":"m 136 1007 q 200 864 201 981 q 144 703 199 765 q 109 674 131 686 q 63 660 88 661 q 24 682 38 660 q 20 696 21 689 q 20 708 19 703 q 25 722 21 714 q 31 735 29 731 q 39 748 33 739 q 46 758 44 757 q 71 910 88 831 q 65 931 69 914 q 60 956 61 949 q 60 976 58 964 q 71 999 63 989 q 135 1007 92 1021 q 136 1007 136 1007 z "},"(":{"ha":513,"x_min":-11,"x_max":446,"o":"m 242 728 q 182 407 189 564 q 217 63 176 257 q 240 -19 224 33 q 261 -90 257 -72 q 233 -147 272 -132 q 204 -154 218 -154 q 181 -150 190 -154 q 160 -135 171 -146 q 144 -117 150 -125 q 131 -92 138 -108 q 120 -67 124 -76 q 110 -41 117 -58 q 103 -19 104 -24 q 63 617 -10 285 q 172 907 96 772 q 351 1151 264 1074 q 352 1153 351 1153 q 354 1154 353 1153 q 392 1163 369 1164 q 429 1151 414 1163 q 442 1136 439 1144 q 440 1117 444 1128 q 431 1098 436 1106 q 417 1078 426 1090 q 407 1063 408 1065 q 242 728 300 904 z "},")":{"ha":432,"x_min":63,"x_max":411,"o":"m 271 1025 q 381 703 353 874 q 382 363 410 532 q 288 60 357 204 q 211 -76 258 -1 q 202 -89 210 -78 q 192 -103 194 -100 q 183 -117 190 -107 q 172 -130 176 -126 q 159 -138 167 -133 q 143 -145 151 -143 q 126 -147 135 -147 q 83 -133 101 -147 q 72 -97 64 -118 q 83 -75 76 -86 q 98 -51 89 -64 q 111 -29 107 -37 q 144 33 131 6 q 243 342 217 182 q 163 983 296 651 q 132 1049 154 1004 q 100 1119 110 1094 q 122 1169 85 1161 q 196 1142 163 1178 q 271 1025 224 1110 z "},"*":{"ha":490,"x_min":8,"x_max":483,"o":"m 424 951 q 466 931 450 949 q 464 889 482 913 q 406 874 449 872 q 307 875 371 874 q 339 826 328 846 q 356 793 356 803 q 328 757 357 768 q 271 763 294 743 q 247 794 265 767 q 210 850 233 815 q 156 810 181 828 q 133 790 156 808 q 100 767 111 772 q 38 771 68 749 q 26 815 10 790 q 38 828 31 822 q 57 843 46 835 q 71 853 68 851 q 107 881 81 861 q 69 885 85 882 q 40 898 54 888 q 29 928 26 908 q 56 956 32 949 q 139 960 79 963 q 124 981 129 974 q 113 1003 119 989 q 106 1027 106 1018 q 111 1046 106 1036 q 131 1061 117 1056 q 149 1065 140 1065 q 165 1063 157 1065 q 181 1056 174 1060 q 195 1044 188 1053 q 208 1031 203 1036 q 219 1015 213 1025 q 230 999 226 1004 q 239 983 233 993 q 242 979 240 981 q 336 1042 319 1033 q 410 1049 382 1067 q 360 953 463 1015 q 424 951 397 953 z "},"+":{"ha":483,"x_min":13,"x_max":481,"o":"m 404 492 q 458 467 436 490 q 458 417 481 444 q 404 393 442 394 q 293 394 392 393 q 292 336 292 350 q 289 290 292 301 q 270 258 285 271 q 238 246 256 246 q 209 249 221 244 q 191 265 197 253 q 181 286 185 276 q 176 315 176 296 q 176 343 176 333 q 178 373 176 353 q 181 397 179 393 q 74 401 97 397 q 14 444 17 410 q 16 463 13 454 q 28 476 19 471 q 45 486 36 482 q 68 492 54 490 q 92 496 82 494 q 119 497 103 497 q 144 496 136 496 q 167 495 151 496 q 183 494 182 494 q 184 525 183 501 q 185 560 185 549 q 188 590 186 572 q 196 622 190 608 q 242 654 206 654 q 289 618 281 654 q 293 493 296 590 q 349 492 313 493 q 404 492 386 492 z "},",":{"ha":221,"x_min":10,"x_max":203,"o":"m 129 194 q 181 163 161 188 q 200 106 200 139 q 183 41 201 71 q 132 -4 164 11 q 93 -17 114 -12 q 50 -17 72 -22 q 19 6 28 -12 q 35 51 10 26 q 63 94 56 71 q 64 107 64 99 q 64 118 64 115 q 65 174 40 149 q 126 194 89 199 l 128 194 q 129 194 128 194 z "},"-":{"ha":450,"x_min":8,"x_max":442,"o":"m 433 447 q 431 412 440 428 q 401 388 421 396 q 374 381 389 382 q 333 382 358 381 q 304 383 308 383 q 178 388 231 386 q 72 393 83 392 q 17 429 28 400 q 20 464 10 450 q 54 482 31 478 q 94 488 78 486 q 129 488 110 489 q 374 479 274 485 q 433 447 421 476 z "},".":{"ha":178,"x_min":8,"x_max":169,"o":"m 157 156 q 152 112 168 132 q 111 85 136 92 q 56 87 85 78 q 18 121 28 96 q 24 163 10 143 q 61 190 38 183 q 115 190 89 199 q 157 156 142 181 z "},"/":{"ha":750,"x_min":61,"x_max":682,"o":"m 676 997 q 681 981 681 990 q 678 960 682 971 q 671 940 675 949 q 661 921 667 932 q 654 904 656 910 q 592 768 626 840 q 315 275 496 576 q 240 153 278 213 q 228 132 236 146 q 216 110 221 118 q 202 91 211 101 q 183 75 193 81 q 126 69 160 63 q 77 98 93 75 q 75 147 61 121 q 97 185 85 165 q 125 228 110 206 q 149 265 140 251 q 293 511 224 390 q 380 667 328 571 q 478 847 432 764 q 568 1001 525 931 q 569 1003 568 1001 q 624 1024 586 1025 q 676 997 661 1022 z "},":":{"ha":196,"x_min":13,"x_max":192,"o":"m 169 540 q 144 475 190 497 q 58 476 99 453 q 38 499 46 485 q 36 540 26 521 q 68 569 46 560 q 123 574 93 582 q 168 544 153 567 q 169 542 168 543 q 169 540 169 542 m 65 200 q 119 199 93 208 q 161 165 146 190 q 156 122 172 143 q 115 94 140 101 q 60 97 89 88 q 22 131 32 106 q 28 173 14 153 q 65 200 42 193 z "},";":{"ha":228,"x_min":13,"x_max":206,"o":"m 64 499 q 63 501 63 500 q 82 572 36 546 q 165 576 124 597 q 192 551 182 567 q 192 508 203 529 q 161 478 182 488 q 64 499 108 456 l 64 499 m 132 204 q 183 173 164 197 q 203 115 203 149 q 185 51 204 81 q 135 6 167 22 q 96 -8 117 -3 q 53 -8 75 -12 q 22 15 31 -3 q 38 61 13 36 q 65 104 58 81 q 67 117 67 108 q 67 128 67 125 q 67 183 43 158 q 129 204 92 208 l 131 204 q 132 204 131 204 z "},"<":{"ha":521,"x_min":13,"x_max":508,"o":"m 500 354 q 476 301 508 317 q 407 292 443 285 q 317 325 388 296 q 231 364 274 344 q 126 413 178 388 q 40 457 50 450 q 14 501 14 475 q 49 551 14 524 q 204 667 128 617 q 290 718 222 678 q 369 757 343 750 q 398 760 382 761 q 428 754 414 758 q 451 739 442 750 q 463 711 461 728 q 451 680 464 696 q 425 656 439 664 q 388 635 411 647 q 360 619 365 624 q 201 511 283 572 q 403 418 304 461 q 425 411 410 417 q 450 401 440 406 q 472 391 460 397 q 490 375 483 385 q 500 354 497 365 z "},"=":{"ha":510,"x_min":8,"x_max":494,"o":"m 44 493 q 22 542 8 510 q 88 576 35 569 q 332 586 153 586 q 357 587 339 586 q 385 587 375 588 q 410 584 396 586 q 435 576 425 582 q 460 553 451 568 q 461 522 468 538 q 407 488 447 490 q 342 486 397 485 q 279 488 288 488 q 208 484 258 488 q 119 482 157 481 q 49 492 82 483 q 47 492 47 492 q 44 493 46 493 m 490 364 q 483 333 494 347 q 454 314 472 319 q 421 307 439 308 q 375 307 403 306 q 342 308 347 308 q 204 307 265 308 q 163 304 193 306 q 119 303 132 303 q 78 304 107 303 q 22 340 26 311 q 24 363 19 353 q 40 378 29 372 q 60 389 50 385 q 87 394 71 393 q 114 397 103 396 q 140 397 125 397 q 158 397 154 397 q 431 403 340 407 q 490 364 483 399 z "},">":{"ha":479,"x_min":14,"x_max":476,"o":"m 444 565 q 461 507 476 540 q 444 484 456 494 q 410 460 432 474 q 385 446 388 447 q 188 317 269 368 q 168 303 183 314 q 145 289 153 293 q 123 277 138 285 q 98 268 108 269 q 75 265 88 267 q 51 269 63 264 q 31 285 40 275 q 15 312 17 299 q 26 340 14 325 q 47 361 39 354 q 76 383 54 368 q 97 397 97 397 q 282 526 172 451 q 224 567 269 536 q 149 619 178 597 q 93 663 119 640 q 74 678 79 672 q 61 695 68 683 q 56 718 54 707 q 88 758 60 743 q 120 768 104 767 q 156 761 136 769 q 184 748 175 753 q 217 726 193 743 q 243 708 242 710 q 355 630 283 682 q 443 567 426 578 q 444 566 443 567 q 444 565 444 565 z "},"?":{"ha":575,"x_min":11,"x_max":515,"o":"m 388 1056 q 485 951 456 1019 q 500 808 515 883 q 460 698 489 753 q 388 579 431 643 q 326 479 344 515 q 265 296 274 379 q 263 280 264 293 q 262 263 263 267 q 259 249 261 260 q 254 233 257 238 q 247 220 251 228 q 237 208 243 213 q 222 200 231 204 q 178 196 203 192 q 138 215 154 200 q 121 329 107 246 q 142 410 128 369 q 178 494 156 451 q 217 565 200 538 q 264 642 233 593 q 272 657 267 647 q 307 713 294 692 q 336 772 319 733 q 357 837 353 810 q 354 897 361 864 q 324 953 347 929 q 242 979 286 992 q 168 922 199 967 q 129 832 139 882 q 126 802 126 818 q 124 768 125 786 q 122 739 124 750 q 68 697 115 688 q 19 767 25 706 q 43 911 13 839 q 131 1028 74 983 q 256 1079 186 1071 q 388 1056 325 1088 m 236 151 q 256 112 256 135 q 236 72 257 89 q 185 56 215 56 q 133 72 156 56 q 113 110 114 86 q 131 149 111 133 q 181 168 154 168 q 235 153 208 168 q 236 151 235 153 z "},"@":{"ha":961,"x_min":11,"x_max":965,"o":"m 915 701 q 921 429 964 564 q 855 308 899 361 q 751 242 811 256 q 635 258 690 228 q 554 347 579 289 q 546 374 549 360 q 499 304 521 332 q 399 243 457 247 q 290 289 329 238 q 256 425 258 329 q 283 590 254 518 q 362 706 310 657 q 481 772 414 754 q 615 774 546 790 q 731 706 685 757 q 731 704 731 706 q 738 667 744 683 q 713 638 732 650 q 710 626 711 633 q 708 618 708 619 q 686 532 703 590 q 672 482 676 499 q 664 435 668 465 q 667 381 660 404 q 690 339 674 357 q 722 324 706 321 q 753 340 739 328 q 782 372 768 351 q 804 410 796 393 q 818 442 813 428 q 836 593 844 514 q 785 738 828 672 q 650 851 736 813 q 476 871 564 889 q 322 793 390 854 q 211 646 253 732 q 152 458 168 557 q 154 261 136 358 q 231 118 174 169 q 411 75 297 56 q 506 100 449 82 q 532 110 514 104 q 565 122 550 117 q 592 129 579 126 q 642 119 618 135 q 654 78 665 104 q 647 66 651 71 q 634 56 642 61 q 622 49 626 51 q 607 42 617 47 q 594 38 597 38 q 514 6 554 18 q 339 -19 422 -24 q 196 19 261 -15 q 89 118 131 54 q 31 429 11 240 q 85 649 42 546 q 213 836 129 753 q 406 950 296 919 q 561 965 482 974 q 709 924 640 956 q 833 835 778 893 q 915 701 889 776 m 572 664 q 574 668 574 665 q 522 664 546 674 q 407 514 440 633 q 393 404 393 465 q 397 353 393 368 q 431 403 406 363 q 479 488 451 438 q 572 664 526 574 z "},"A":{"ha":632,"x_min":-14,"x_max":647,"o":"m 643 -81 q 611 -130 646 -115 q 544 -133 576 -144 q 522 -118 531 -129 q 510 -100 513 -107 q 503 -72 508 -93 q 467 81 486 -18 q 219 86 253 85 q 208 86 217 86 q 196 86 200 86 q 185 86 192 86 q 173 83 175 85 q 165 74 171 82 q 143 22 165 72 q 97 -54 117 -37 q 48 -69 79 -71 q 1 -47 17 -68 q -1 6 -12 -28 q 39 94 3 15 q -10 131 -7 103 q 33 172 -12 163 q 48 174 39 174 q 63 175 57 175 q 65 176 64 176 q 75 180 74 178 q 82 189 76 182 q 104 242 82 190 q 160 372 136 314 q 214 507 186 435 q 274 667 242 579 q 326 803 307 754 q 335 830 328 808 q 347 861 343 851 q 360 886 351 871 q 381 908 369 901 q 408 918 393 915 q 465 901 444 922 q 489 832 481 886 q 510 686 499 771 q 532 520 521 601 q 554 375 543 439 q 594 151 574 256 q 616 51 597 135 q 643 -79 635 -33 q 643 -81 643 -79 m 450 168 q 385 599 406 396 q 211 174 296 364 q 450 168 275 172 z "},"À":{"ha":632,"x_min":-14,"x_max":647,"o":"m 643 -81 q 611 -130 646 -115 q 544 -133 576 -144 q 522 -118 531 -129 q 510 -100 513 -107 q 503 -72 508 -93 q 467 81 486 -18 q 219 86 253 85 q 208 86 217 86 q 196 86 200 86 q 185 86 192 86 q 173 83 175 85 q 165 74 171 82 q 143 22 165 72 q 97 -54 117 -37 q 48 -69 79 -71 q 1 -47 17 -68 q -1 6 -12 -28 q 39 94 3 15 q -10 131 -7 103 q 33 172 -12 163 q 48 174 39 174 q 63 175 57 175 q 65 176 64 176 q 75 180 74 178 q 82 189 76 182 q 104 242 82 190 q 160 372 136 314 q 214 507 186 435 q 274 667 242 579 q 326 803 307 754 q 335 830 328 808 q 347 861 343 851 q 360 886 351 871 q 381 908 369 901 q 408 918 393 915 q 465 901 444 922 q 489 832 481 886 q 510 686 499 771 q 532 520 521 601 q 554 375 543 439 q 594 151 574 256 q 616 51 597 135 q 643 -79 635 -33 q 643 -81 643 -79 m 450 168 q 385 599 406 396 q 211 174 296 364 q 450 168 275 172 z "},"Á":{"ha":632,"x_min":-14,"x_max":647,"o":"m 643 -81 q 611 -130 646 -115 q 544 -133 576 -144 q 522 -118 531 -129 q 510 -100 513 -107 q 503 -72 508 -93 q 467 81 486 -18 q 219 86 253 85 q 208 86 217 86 q 196 86 200 86 q 185 86 192 86 q 173 83 175 85 q 165 74 171 82 q 143 22 165 72 q 97 -54 117 -37 q 48 -69 79 -71 q 1 -47 17 -68 q -1 6 -12 -28 q 39 94 3 15 q -10 131 -7 103 q 33 172 -12 163 q 48 174 39 174 q 63 175 57 175 q 65 176 64 176 q 75 180 74 178 q 82 189 76 182 q 104 242 82 190 q 160 372 136 314 q 214 507 186 435 q 274 667 242 579 q 326 803 307 754 q 335 830 328 808 q 347 861 343 851 q 360 886 351 871 q 381 908 369 901 q 408 918 393 915 q 465 901 444 922 q 489 832 481 886 q 510 686 499 771 q 532 520 521 601 q 554 375 543 439 q 594 151 574 256 q 616 51 597 135 q 643 -79 635 -33 q 643 -81 643 -79 m 450 168 q 385 599 406 396 q 211 174 296 364 q 450 168 275 172 z "},"Â":{"ha":632,"x_min":-14,"x_max":647,"o":"m 643 -81 q 611 -130 646 -115 q 544 -133 576 -144 q 522 -118 531 -129 q 510 -100 513 -107 q 503 -72 508 -93 q 467 81 486 -18 q 219 86 253 85 q 208 86 217 86 q 196 86 200 86 q 185 86 192 86 q 173 83 175 85 q 165 74 171 82 q 143 22 165 72 q 97 -54 117 -37 q 48 -69 79 -71 q 1 -47 17 -68 q -1 6 -12 -28 q 39 94 3 15 q -10 131 -7 103 q 33 172 -12 163 q 48 174 39 174 q 63 175 57 175 q 65 176 64 176 q 75 180 74 178 q 82 189 76 182 q 104 242 82 190 q 160 372 136 314 q 214 507 186 435 q 274 667 242 579 q 326 803 307 754 q 335 830 328 808 q 347 861 343 851 q 360 886 351 871 q 381 908 369 901 q 408 918 393 915 q 465 901 444 922 q 489 832 481 886 q 510 686 499 771 q 532 520 521 601 q 554 375 543 439 q 594 151 574 256 q 616 51 597 135 q 643 -79 635 -33 q 643 -81 643 -79 m 450 168 q 385 599 406 396 q 211 174 296 364 q 450 168 275 172 z "},"Ã":{"ha":632,"x_min":-14,"x_max":647,"o":"m 643 -81 q 611 -130 646 -115 q 544 -133 576 -144 q 522 -118 531 -129 q 510 -100 513 -107 q 503 -72 508 -93 q 467 81 486 -18 q 219 86 253 85 q 208 86 217 86 q 196 86 200 86 q 185 86 192 86 q 173 83 175 85 q 165 74 171 82 q 143 22 165 72 q 97 -54 117 -37 q 48 -69 79 -71 q 1 -47 17 -68 q -1 6 -12 -28 q 39 94 3 15 q -10 131 -7 103 q 33 172 -12 163 q 48 174 39 174 q 63 175 57 175 q 65 176 64 176 q 75 180 74 178 q 82 189 76 182 q 104 242 82 190 q 160 372 136 314 q 214 507 186 435 q 274 667 242 579 q 326 803 307 754 q 335 830 328 808 q 347 861 343 851 q 360 886 351 871 q 381 908 369 901 q 408 918 393 915 q 465 901 444 922 q 489 832 481 886 q 510 686 499 771 q 532 520 521 601 q 554 375 543 439 q 594 151 574 256 q 616 51 597 135 q 643 -79 635 -33 q 643 -81 643 -79 m 450 168 q 385 599 406 396 q 211 174 296 364 q 450 168 275 172 z "},"Ä":{"ha":632,"x_min":-14,"x_max":647,"o":"m 643 -81 q 611 -130 646 -115 q 544 -133 576 -144 q 522 -118 531 -129 q 510 -100 513 -107 q 503 -72 508 -93 q 467 81 486 -18 q 219 86 253 85 q 208 86 217 86 q 196 86 200 86 q 185 86 192 86 q 173 83 175 85 q 165 74 171 82 q 143 22 165 72 q 97 -54 117 -37 q 48 -69 79 -71 q 1 -47 17 -68 q -1 6 -12 -28 q 39 94 3 15 q -10 131 -7 103 q 33 172 -12 163 q 48 174 39 174 q 63 175 57 175 q 65 176 64 176 q 75 180 74 178 q 82 189 76 182 q 104 242 82 190 q 160 372 136 314 q 214 507 186 435 q 274 667 242 579 q 326 803 307 754 q 335 830 328 808 q 347 861 343 851 q 360 886 351 871 q 381 908 369 901 q 408 918 393 915 q 465 901 444 922 q 489 832 481 886 q 510 686 499 771 q 532 520 521 601 q 554 375 543 439 q 594 151 574 256 q 616 51 597 135 q 643 -79 635 -33 q 643 -81 643 -79 m 450 168 q 385 599 406 396 q 211 174 296 364 q 450 168 275 172 z "},"Å":{"ha":632,"x_min":-14,"x_max":647,"o":"m 643 -81 q 611 -130 646 -115 q 544 -133 576 -144 q 522 -118 531 -129 q 510 -100 513 -107 q 503 -72 508 -93 q 467 81 486 -18 q 219 86 253 85 q 208 86 217 86 q 196 86 200 86 q 185 86 192 86 q 173 83 175 85 q 165 74 171 82 q 143 22 165 72 q 97 -54 117 -37 q 48 -69 79 -71 q 1 -47 17 -68 q -1 6 -12 -28 q 39 94 3 15 q -10 131 -7 103 q 33 172 -12 163 q 48 174 39 174 q 63 175 57 175 q 65 176 64 176 q 75 180 74 178 q 82 189 76 182 q 104 242 82 190 q 160 372 136 314 q 214 507 186 435 q 274 667 242 579 q 326 803 307 754 q 335 830 328 808 q 347 861 343 851 q 360 886 351 871 q 381 908 369 901 q 408 918 393 915 q 465 901 444 922 q 489 832 481 886 q 510 686 499 771 q 532 520 521 601 q 554 375 543 439 q 594 151 574 256 q 616 51 597 135 q 643 -79 635 -33 q 643 -81 643 -79 m 450 168 q 385 599 406 396 q 211 174 296 364 q 450 168 275 172 z "},"B":{"ha":599,"x_min":40,"x_max":592,"o":"m 564 640 q 382 411 522 501 q 535 288 488 375 q 556 94 585 194 q 426 -62 525 -11 q 215 -93 326 -114 q 185 -84 204 -90 q 158 -76 167 -78 q 138 -75 153 -74 q 118 -75 124 -76 q 61 -39 74 -69 q 56 10 57 -31 q 54 83 56 46 q 51 229 53 132 q 42 817 47 454 q 42 858 40 835 q 47 903 43 882 q 65 939 50 924 q 103 957 79 954 q 132 954 119 958 q 153 942 144 950 q 167 924 161 933 q 177 900 174 914 q 182 874 181 886 q 183 847 183 861 q 310 910 239 896 q 451 900 381 925 q 563 797 533 867 q 564 640 590 731 m 203 36 q 222 28 204 35 q 249 18 239 21 q 324 21 286 8 q 392 75 367 36 q 419 161 417 114 q 353 307 422 258 q 268 333 314 335 q 233 328 257 332 q 196 324 208 324 q 203 36 200 143 m 338 536 q 418 663 392 589 q 401 799 453 757 q 326 818 365 829 q 255 778 286 807 q 206 714 224 750 q 193 679 197 699 q 189 648 189 660 q 190 608 189 636 q 192 575 192 581 q 193 457 192 538 q 338 536 275 478 z "},"C":{"ha":576,"x_min":14,"x_max":581,"o":"m 528 132 q 576 83 572 119 q 557 10 579 46 q 507 -50 535 -26 q 378 -99 453 -93 q 242 -72 304 -104 q 145 3 186 -44 q 82 113 104 51 q 48 231 60 175 q 31 356 36 288 q 44 679 15 518 q 83 815 58 757 q 157 910 108 872 q 292 958 217 956 q 430 921 367 961 q 515 807 493 881 q 519 703 533 749 q 495 676 514 685 q 456 671 476 668 q 403 722 410 674 q 326 843 392 817 q 311 847 324 844 q 211 751 247 850 q 179 590 189 688 q 185 294 163 440 q 253 85 206 154 q 286 47 268 64 q 326 21 304 31 q 370 15 347 11 q 413 40 393 19 q 432 81 422 50 q 458 121 442 111 q 525 132 486 138 q 526 132 525 132 q 528 132 526 132 z "},"Ç":{"ha":576,"x_min":14,"x_max":581,"o":"m 528 132 q 576 83 572 119 q 557 10 579 46 q 507 -50 535 -26 q 378 -99 453 -93 q 242 -72 304 -104 q 145 3 186 -44 q 82 113 104 51 q 48 231 60 175 q 31 356 36 288 q 44 679 15 518 q 83 815 58 757 q 157 910 108 872 q 292 958 217 956 q 430 921 367 961 q 515 807 493 881 q 519 703 533 749 q 495 676 514 685 q 456 671 476 668 q 403 722 410 674 q 326 843 392 817 q 311 847 324 844 q 211 751 247 850 q 179 590 189 688 q 185 294 163 440 q 253 85 206 154 q 286 47 268 64 q 326 21 304 31 q 370 15 347 11 q 413 40 393 19 q 432 81 422 50 q 458 121 442 111 q 525 132 486 138 q 526 132 525 132 q 528 132 526 132 z "},"D":{"ha":578,"x_min":35,"x_max":590,"o":"m 407 896 q 550 710 511 838 q 536 418 589 579 q 418 178 493 288 q 238 3 343 69 q 203 -15 218 -8 q 192 -19 201 -17 q 180 -25 182 -22 q 173 -35 178 -28 q 165 -46 168 -43 q 104 -64 142 -67 q 51 -39 69 -61 q 36 8 38 -22 q 38 60 35 39 q 41 248 39 128 q 46 468 43 368 q 51 657 49 568 q 58 808 56 771 q 60 829 60 815 q 62 853 61 843 q 64 876 63 864 q 69 900 65 889 q 78 919 72 911 q 137 949 96 949 q 194 919 178 950 q 407 896 301 950 m 371 386 q 410 676 443 558 q 333 797 390 751 q 203 824 275 843 q 198 621 203 753 q 193 465 193 489 q 186 121 186 225 q 371 386 294 208 z "},"E":{"ha":514,"x_min":25,"x_max":522,"o":"m 435 82 q 510 61 485 90 q 521 28 522 46 q 504 -3 519 11 q 478 -17 494 -11 q 452 -26 463 -24 q 419 -31 442 -28 q 393 -35 397 -33 q 251 -50 322 -46 q 122 -50 156 -56 q 67 -12 79 -44 q 57 39 63 -4 q 50 106 54 72 q 40 240 44 172 q 60 763 26 533 q 71 832 64 799 q 85 892 81 883 q 136 924 96 917 q 174 927 154 926 q 219 928 194 928 q 257 929 244 929 q 390 933 363 935 q 457 903 444 929 q 457 874 464 888 q 435 851 450 860 q 336 833 408 838 q 274 829 315 832 q 211 825 233 826 q 186 493 188 544 q 328 493 293 497 q 390 447 393 486 q 328 404 389 408 q 256 404 307 403 q 183 406 204 406 q 201 61 183 233 q 435 82 321 64 z "},"È":{"ha":514,"x_min":25,"x_max":522,"o":"m 435 82 q 510 61 485 90 q 521 28 522 46 q 504 -3 519 11 q 478 -17 494 -11 q 452 -26 463 -24 q 419 -31 442 -28 q 393 -35 397 -33 q 251 -50 322 -46 q 122 -50 156 -56 q 67 -12 79 -44 q 57 39 63 -4 q 50 106 54 72 q 40 240 44 172 q 60 763 26 533 q 71 832 64 799 q 85 892 81 883 q 136 924 96 917 q 174 927 154 926 q 219 928 194 928 q 257 929 244 929 q 390 933 363 935 q 457 903 444 929 q 457 874 464 888 q 435 851 450 860 q 336 833 408 838 q 274 829 315 832 q 211 825 233 826 q 186 493 188 544 q 328 493 293 497 q 390 447 393 486 q 328 404 389 408 q 256 404 307 403 q 183 406 204 406 q 201 61 183 233 q 435 82 321 64 z "},"É":{"ha":514,"x_min":25,"x_max":522,"o":"m 435 82 q 510 61 485 90 q 521 28 522 46 q 504 -3 519 11 q 478 -17 494 -11 q 452 -26 463 -24 q 419 -31 442 -28 q 393 -35 397 -33 q 251 -50 322 -46 q 122 -50 156 -56 q 67 -12 79 -44 q 57 39 63 -4 q 50 106 54 72 q 40 240 44 172 q 60 763 26 533 q 71 832 64 799 q 85 892 81 883 q 136 924 96 917 q 174 927 154 926 q 219 928 194 928 q 257 929 244 929 q 390 933 363 935 q 457 903 444 929 q 457 874 464 888 q 435 851 450 860 q 336 833 408 838 q 274 829 315 832 q 211 825 233 826 q 186 493 188 544 q 328 493 293 497 q 390 447 393 486 q 328 404 389 408 q 256 404 307 403 q 183 406 204 406 q 201 61 183 233 q 435 82 321 64 z "},"Ê":{"ha":514,"x_min":25,"x_max":522,"o":"m 435 82 q 510 61 485 90 q 521 28 522 46 q 504 -3 519 11 q 478 -17 494 -11 q 452 -26 463 -24 q 419 -31 442 -28 q 393 -35 397 -33 q 251 -50 322 -46 q 122 -50 156 -56 q 67 -12 79 -44 q 57 39 63 -4 q 50 106 54 72 q 40 240 44 172 q 60 763 26 533 q 71 832 64 799 q 85 892 81 883 q 136 924 96 917 q 174 927 154 926 q 219 928 194 928 q 257 929 244 929 q 390 933 363 935 q 457 903 444 929 q 457 874 464 888 q 435 851 450 860 q 336 833 408 838 q 274 829 315 832 q 211 825 233 826 q 186 493 188 544 q 328 493 293 497 q 390 447 393 486 q 328 404 389 408 q 256 404 307 403 q 183 406 204 406 q 201 61 183 233 q 435 82 321 64 z "},"Ë":{"ha":514,"x_min":25,"x_max":522,"o":"m 435 82 q 510 61 485 90 q 521 28 522 46 q 504 -3 519 11 q 478 -17 494 -11 q 452 -26 463 -24 q 419 -31 442 -28 q 393 -35 397 -33 q 251 -50 322 -46 q 122 -50 156 -56 q 67 -12 79 -44 q 57 39 63 -4 q 50 106 54 72 q 40 240 44 172 q 60 763 26 533 q 71 832 64 799 q 85 892 81 883 q 136 924 96 917 q 174 927 154 926 q 219 928 194 928 q 257 929 244 929 q 390 933 363 935 q 457 903 444 929 q 457 874 464 888 q 435 851 450 860 q 336 833 408 838 q 274 829 315 832 q 211 825 233 826 q 186 493 188 544 q 328 493 293 497 q 390 447 393 486 q 328 404 389 408 q 256 404 307 403 q 183 406 204 406 q 201 61 183 233 q 435 82 321 64 z "},"F":{"ha":507,"x_min":40,"x_max":525,"o":"m 483 942 q 513 924 501 936 q 521 893 524 911 q 503 867 518 876 q 469 857 488 858 q 402 856 449 856 q 336 857 356 857 q 196 843 261 854 q 194 733 196 793 q 192 610 193 674 q 189 500 190 546 q 319 497 269 506 q 362 480 342 493 q 381 447 382 467 q 359 412 381 425 q 314 396 338 399 q 250 400 303 396 q 189 400 229 401 q 197 144 190 268 q 204 24 199 93 q 192 -50 207 -28 q 141 -78 174 -75 q 85 -61 108 -82 q 65 -31 72 -50 q 57 -1 58 -12 q 55 38 56 11 q 54 71 54 65 q 42 526 42 286 q 47 758 42 661 q 58 872 51 819 q 82 922 63 907 q 103 932 90 928 q 122 937 115 936 q 146 939 128 938 q 167 942 164 940 q 268 949 211 946 q 481 942 407 954 q 483 942 482 942 z "},"G":{"ha":628,"x_min":3,"x_max":610,"o":"m 565 363 q 606 328 600 353 q 603 303 608 315 q 599 297 603 301 q 594 292 594 293 q 593 267 592 285 q 572 88 596 156 q 477 -35 544 7 q 326 -68 410 -76 q 202 -22 257 -61 q 113 78 147 18 q 60 201 79 139 q 31 332 40 264 q 51 690 3 518 q 222 947 107 886 q 356 976 283 981 q 486 929 429 971 q 542 871 518 904 q 578 799 565 838 q 593 721 592 761 q 567 608 596 636 q 519 590 549 590 q 469 606 489 590 q 453 647 451 619 q 453 735 457 704 q 417 818 444 782 q 349 863 390 854 q 334 863 346 863 q 315 860 322 863 q 256 807 286 849 q 200 682 224 760 q 210 200 125 440 q 271 88 233 129 q 303 60 286 71 q 343 43 321 49 q 385 49 365 38 q 444 160 431 74 q 447 275 451 200 q 419 272 443 275 q 384 269 394 269 q 356 273 374 269 q 328 283 339 276 q 310 310 313 294 q 319 339 308 326 q 354 358 332 351 q 388 365 376 364 q 428 367 399 365 q 460 367 433 367 q 499 368 488 368 q 529 367 510 368 q 565 363 549 365 z "},"H":{"ha":603,"x_min":21,"x_max":563,"o":"m 560 68 q 560 53 560 63 q 562 38 561 44 q 562 24 563 32 q 560 8 561 15 q 556 -6 558 1 q 547 -18 553 -12 q 481 -41 524 -44 q 424 -4 439 -37 q 417 17 419 4 q 415 38 415 29 q 414 62 414 47 q 414 83 414 76 q 410 210 413 128 q 406 447 407 331 q 204 425 361 444 q 207 169 208 296 q 207 101 207 113 q 200 69 206 81 q 138 36 182 38 q 69 64 90 35 q 59 91 61 76 q 58 131 57 106 q 60 161 60 157 q 57 419 61 288 q 31 438 40 426 q 28 465 21 450 q 40 480 29 472 q 53 492 51 488 q 53 524 54 494 q 51 557 53 538 q 46 638 50 581 q 41 719 42 696 q 42 800 40 743 q 63 861 44 839 q 119 874 82 883 q 149 858 136 869 q 167 828 161 847 q 176 797 174 810 q 181 761 178 783 q 182 751 182 754 q 200 518 194 650 q 313 532 240 524 q 404 543 385 540 q 410 818 404 717 q 419 917 414 888 q 447 975 429 964 q 499 983 472 992 q 535 949 526 975 q 546 897 542 925 q 550 842 550 868 q 551 787 550 815 q 551 733 551 758 q 551 601 551 686 q 551 485 551 515 q 557 196 553 394 q 560 68 560 117 z "},"I":{"ha":246,"x_min":35,"x_max":219,"o":"m 197 244 q 211 96 207 129 q 215 78 213 92 q 217 57 217 64 q 218 38 218 50 q 217 16 218 25 q 211 -1 215 7 q 162 -33 197 -28 q 104 -19 126 -37 q 76 44 85 -4 q 63 151 75 46 q 42 408 49 264 q 38 669 36 542 q 39 700 39 674 q 39 733 39 726 q 40 763 39 739 q 42 796 42 786 q 44 825 43 806 q 48 857 46 844 q 53 886 50 869 q 61 917 57 903 q 68 940 65 933 q 78 955 71 947 q 99 967 86 963 q 158 958 133 976 q 170 943 165 953 q 176 928 175 933 q 179 906 178 922 q 181 889 181 890 q 182 763 183 865 q 197 244 176 482 z "},"Ì":{"ha":246,"x_min":35,"x_max":219,"o":"m 197 244 q 211 96 207 129 q 215 78 213 92 q 217 57 217 64 q 218 38 218 50 q 217 16 218 25 q 211 -1 215 7 q 162 -33 197 -28 q 104 -19 126 -37 q 76 44 85 -4 q 63 151 75 46 q 42 408 49 264 q 38 669 36 542 q 39 700 39 674 q 39 733 39 726 q 40 763 39 739 q 42 796 42 786 q 44 825 43 806 q 48 857 46 844 q 53 886 50 869 q 61 917 57 903 q 68 940 65 933 q 78 955 71 947 q 99 967 86 963 q 158 958 133 976 q 170 943 165 953 q 176 928 175 933 q 179 906 178 922 q 181 889 181 890 q 182 763 183 865 q 197 244 176 482 z "},"Í":{"ha":246,"x_min":35,"x_max":219,"o":"m 197 244 q 211 96 207 129 q 215 78 213 92 q 217 57 217 64 q 218 38 218 50 q 217 16 218 25 q 211 -1 215 7 q 162 -33 197 -28 q 104 -19 126 -37 q 76 44 85 -4 q 63 151 75 46 q 42 408 49 264 q 38 669 36 542 q 39 700 39 674 q 39 733 39 726 q 40 763 39 739 q 42 796 42 786 q 44 825 43 806 q 48 857 46 844 q 53 886 50 869 q 61 917 57 903 q 68 940 65 933 q 78 955 71 947 q 99 967 86 963 q 158 958 133 976 q 170 943 165 953 q 176 928 175 933 q 179 906 178 922 q 181 889 181 890 q 182 763 183 865 q 197 244 176 482 z "},"Î":{"ha":246,"x_min":35,"x_max":219,"o":"m 197 244 q 211 96 207 129 q 215 78 213 92 q 217 57 217 64 q 218 38 218 50 q 217 16 218 25 q 211 -1 215 7 q 162 -33 197 -28 q 104 -19 126 -37 q 76 44 85 -4 q 63 151 75 46 q 42 408 49 264 q 38 669 36 542 q 39 700 39 674 q 39 733 39 726 q 40 763 39 739 q 42 796 42 786 q 44 825 43 806 q 48 857 46 844 q 53 886 50 869 q 61 917 57 903 q 68 940 65 933 q 78 955 71 947 q 99 967 86 963 q 158 958 133 976 q 170 943 165 953 q 176 928 175 933 q 179 906 178 922 q 181 889 181 890 q 182 763 183 865 q 197 244 176 482 z "},"Ï":{"ha":246,"x_min":35,"x_max":219,"o":"m 197 244 q 211 96 207 129 q 215 78 213 92 q 217 57 217 64 q 218 38 218 50 q 217 16 218 25 q 211 -1 215 7 q 162 -33 197 -28 q 104 -19 126 -37 q 76 44 85 -4 q 63 151 75 46 q 42 408 49 264 q 38 669 36 542 q 39 700 39 674 q 39 733 39 726 q 40 763 39 739 q 42 796 42 786 q 44 825 43 806 q 48 857 46 844 q 53 886 50 869 q 61 917 57 903 q 68 940 65 933 q 78 955 71 947 q 99 967 86 963 q 158 958 133 976 q 170 943 165 953 q 176 928 175 933 q 179 906 178 922 q 181 889 181 890 q 182 763 183 865 q 197 244 176 482 z "},"J":{"ha":513,"x_min":-11,"x_max":478,"o":"m 451 938 q 459 903 456 919 q 465 865 463 886 q 468 833 467 844 q 471 794 469 821 q 472 761 472 768 q 473 723 472 754 q 474 688 474 692 q 472 422 478 544 q 451 208 465 306 q 394 44 435 100 q 264 -40 347 -22 q 108 -22 181 -58 q 6 90 36 13 q -7 136 -3 113 q -6 187 -11 160 q 14 228 -1 214 q 58 242 31 244 q 97 217 86 239 q 100 210 99 214 q 102 202 101 206 q 103 194 103 199 q 103 188 103 190 q 105 181 104 185 q 106 172 106 176 q 122 122 111 142 q 199 64 149 72 q 210 64 204 64 l 211 64 q 253 85 235 68 q 282 121 272 101 q 299 172 292 140 q 309 222 307 204 q 314 269 311 240 q 315 278 315 275 q 324 768 335 468 q 326 890 321 843 q 327 899 326 892 q 328 909 328 907 q 329 919 328 911 q 331 929 331 926 q 334 938 332 932 q 338 947 336 943 q 344 954 340 950 q 351 961 347 958 q 406 972 372 978 q 450 942 439 967 q 451 939 451 940 q 451 938 451 938 z "},"K":{"ha":604,"x_min":43,"x_max":631,"o":"m 590 932 q 582 844 631 901 q 449 678 476 717 q 340 494 389 590 q 297 403 319 451 q 272 346 285 375 q 266 333 271 343 q 258 316 261 324 q 256 303 256 308 q 260 290 256 297 q 268 278 264 282 q 280 266 272 274 q 289 257 288 258 q 318 228 304 242 q 400 172 356 194 q 497 133 436 153 q 507 129 499 132 q 517 126 515 126 q 526 122 519 125 q 535 117 532 119 q 543 111 539 115 q 550 103 547 107 q 550 52 564 75 q 507 22 536 29 q 350 58 453 11 q 204 158 272 96 q 193 96 193 124 q 194 25 193 57 q 195 -5 194 22 q 196 -46 196 -32 q 189 -71 194 -61 q 144 -101 176 -94 q 88 -96 111 -107 q 63 -81 72 -90 q 51 -56 54 -71 q 47 -31 47 -42 q 47 -1 46 -21 q 47 26 47 19 q 44 282 44 156 q 53 803 44 549 q 53 842 53 808 q 54 891 53 875 q 64 930 56 907 q 88 964 72 953 q 143 977 111 982 q 189 946 175 972 q 201 853 204 918 q 197 738 199 792 q 193 514 194 629 q 317 726 249 626 q 486 933 415 874 q 488 935 486 933 q 539 949 510 950 q 590 932 568 947 z "},"L":{"ha":518,"x_min":39,"x_max":543,"o":"m 451 92 q 531 61 510 99 q 531 22 542 42 q 499 -7 521 1 q 479 -13 490 -11 q 460 -17 468 -15 q 439 -19 451 -18 q 419 -21 426 -21 q 346 -31 382 -26 q 179 -42 258 -40 q 124 -44 156 -46 q 72 -28 92 -42 q 58 -15 64 -22 q 50 4 53 -7 q 47 22 47 15 q 46 43 46 28 q 46 63 46 58 q 40 365 39 214 q 49 667 42 515 q 60 822 53 743 q 79 926 67 896 q 138 965 97 965 q 196 938 179 967 q 209 883 208 917 q 206 826 210 850 q 196 676 203 782 q 193 71 181 378 q 450 92 333 74 q 451 92 451 92 z "},"M":{"ha":1101,"x_min":29,"x_max":1067,"o":"m 1057 649 q 1063 476 1061 575 q 1063 124 1065 325 q 1060 36 1061 92 q 1060 16 1060 31 q 1060 -9 1061 1 q 1057 -28 1060 -19 q 1010 -65 1047 -57 q 943 -56 971 -74 q 925 -35 931 -47 q 919 -11 919 -24 q 919 15 919 1 q 924 369 924 228 q 918 700 924 607 q 915 741 918 721 q 903 786 911 761 q 881 826 896 811 q 844 840 865 842 q 828 836 836 840 q 813 828 819 832 q 799 815 807 824 q 788 800 792 806 q 776 783 783 794 q 767 766 769 771 q 758 749 764 761 q 751 735 751 736 q 631 93 617 474 q 630 65 631 75 q 624 44 629 56 q 606 25 618 33 q 538 17 576 8 q 489 53 500 24 q 483 110 485 61 q 481 196 482 138 q 468 543 468 511 q 464 620 467 564 q 461 707 461 676 q 458 781 458 775 q 418 863 451 863 q 356 811 389 861 q 328 756 343 790 q 274 603 294 678 q 218 267 235 464 q 211 97 214 201 q 211 80 211 94 q 211 59 211 65 q 209 42 211 53 q 202 24 207 32 q 190 11 197 17 q 124 -4 165 -10 q 69 32 83 1 q 63 89 65 42 q 57 171 60 126 q 49 344 56 199 q 41 491 49 358 q 32 692 33 624 q 32 783 31 767 q 40 811 33 800 q 101 836 60 838 q 160 807 142 833 q 169 765 167 796 q 174 718 172 744 q 429 963 264 969 q 516 938 478 961 q 575 872 554 914 q 607 694 603 815 q 854 935 708 939 q 938 911 899 933 q 1004 853 978 889 q 1035 788 1024 825 q 1051 722 1047 750 q 1057 649 1054 693 z "},"N":{"ha":692,"x_min":38,"x_max":661,"o":"m 549 940 q 650 786 632 894 q 653 538 660 717 q 638 260 651 508 q 633 172 635 229 q 628 69 631 115 q 621 -18 626 22 q 582 -68 618 -53 q 510 -70 546 -83 q 474 -21 475 -57 q 474 15 474 -4 q 476 49 475 33 q 479 84 478 64 q 482 118 481 104 q 486 189 483 142 q 490 260 489 236 q 506 538 504 507 q 508 674 507 581 q 496 806 511 764 q 487 828 492 818 q 472 848 482 839 q 450 853 461 857 q 411 807 433 847 q 356 694 392 774 q 204 194 240 439 q 190 58 194 126 q 190 40 190 53 q 190 19 190 26 q 186 3 189 13 q 178 -14 183 -7 q 130 -39 161 -35 q 76 -31 99 -43 q 43 7 49 -18 q 40 61 42 13 q 39 125 40 93 q 42 410 38 263 q 54 685 47 596 q 67 810 58 751 q 78 879 74 857 q 92 904 82 896 q 155 919 114 925 q 207 883 196 914 q 210 826 211 875 q 206 758 208 797 q 203 711 206 742 q 200 667 201 681 q 301 868 253 797 q 463 964 364 961 q 549 940 510 963 z "},"Ñ":{"ha":692,"x_min":38,"x_max":661,"o":"m 549 940 q 650 786 632 894 q 653 538 660 717 q 638 260 651 508 q 633 172 635 229 q 628 69 631 115 q 621 -18 626 22 q 582 -68 618 -53 q 510 -70 546 -83 q 474 -21 475 -57 q 474 15 474 -4 q 476 49 475 33 q 479 84 478 64 q 482 118 481 104 q 486 189 483 142 q 490 260 489 236 q 506 538 504 507 q 508 674 507 581 q 496 806 511 764 q 487 828 492 818 q 472 848 482 839 q 450 853 461 857 q 411 807 433 847 q 356 694 392 774 q 204 194 240 439 q 190 58 194 126 q 190 40 190 53 q 190 19 190 26 q 186 3 189 13 q 178 -14 183 -7 q 130 -39 161 -35 q 76 -31 99 -43 q 43 7 49 -18 q 40 61 42 13 q 39 125 40 93 q 42 410 38 263 q 54 685 47 596 q 67 810 58 751 q 78 879 74 857 q 92 904 82 896 q 155 919 114 925 q 207 883 196 914 q 210 826 211 875 q 206 758 208 797 q 203 711 206 742 q 200 667 201 681 q 301 868 253 797 q 463 964 364 961 q 549 940 510 963 z "},"O":{"ha":614,"x_min":-1,"x_max":596,"o":"m 557 689 q 592 450 588 582 q 567 214 596 314 q 485 49 540 121 q 347 -46 431 -24 q 190 -27 264 -68 q 76 94 115 14 q 31 500 -1 258 q 78 713 43 594 q 146 901 113 835 q 126 939 121 915 q 169 972 131 961 q 342 957 251 996 q 475 851 421 922 q 557 689 529 781 m 465 274 q 457 646 507 450 q 423 742 444 697 q 365 825 401 786 q 282 883 328 864 q 244 758 271 840 q 206 633 217 675 q 200 169 136 363 q 249 82 218 113 q 301 53 276 53 q 360 81 326 53 q 465 274 432 140 z "},"Ò":{"ha":614,"x_min":-1,"x_max":596,"o":"m 557 689 q 592 450 588 582 q 567 214 596 314 q 485 49 540 121 q 347 -46 431 -24 q 190 -27 264 -68 q 76 94 115 14 q 31 500 -1 258 q 78 713 43 594 q 146 901 113 835 q 126 939 121 915 q 169 972 131 961 q 342 957 251 996 q 475 851 421 922 q 557 689 529 781 m 465 274 q 457 646 507 450 q 423 742 444 697 q 365 825 401 786 q 282 883 328 864 q 244 758 271 840 q 206 633 217 675 q 200 169 136 363 q 249 82 218 113 q 301 53 276 53 q 360 81 326 53 q 465 274 432 140 z "},"Ó":{"ha":614,"x_min":-1,"x_max":596,"o":"m 557 689 q 592 450 588 582 q 567 214 596 314 q 485 49 540 121 q 347 -46 431 -24 q 190 -27 264 -68 q 76 94 115 14 q 31 500 -1 258 q 78 713 43 594 q 146 901 113 835 q 126 939 121 915 q 169 972 131 961 q 342 957 251 996 q 475 851 421 922 q 557 689 529 781 m 465 274 q 457 646 507 450 q 423 742 444 697 q 365 825 401 786 q 282 883 328 864 q 244 758 271 840 q 206 633 217 675 q 200 169 136 363 q 249 82 218 113 q 301 53 276 53 q 360 81 326 53 q 465 274 432 140 z "},"Ô":{"ha":614,"x_min":-1,"x_max":596,"o":"m 557 689 q 592 450 588 582 q 567 214 596 314 q 485 49 540 121 q 347 -46 431 -24 q 190 -27 264 -68 q 76 94 115 14 q 31 500 -1 258 q 78 713 43 594 q 146 901 113 835 q 126 939 121 915 q 169 972 131 961 q 342 957 251 996 q 475 851 421 922 q 557 689 529 781 m 465 274 q 457 646 507 450 q 423 742 444 697 q 365 825 401 786 q 282 883 328 864 q 244 758 271 840 q 206 633 217 675 q 200 169 136 363 q 249 82 218 113 q 301 53 276 53 q 360 81 326 53 q 465 274 432 140 z "},"Õ":{"ha":614,"x_min":-1,"x_max":596,"o":"m 557 689 q 592 450 588 582 q 567 214 596 314 q 485 49 540 121 q 347 -46 431 -24 q 190 -27 264 -68 q 76 94 115 14 q 31 500 -1 258 q 78 713 43 594 q 146 901 113 835 q 126 939 121 915 q 169 972 131 961 q 342 957 251 996 q 475 851 421 922 q 557 689 529 781 m 465 274 q 457 646 507 450 q 423 742 444 697 q 365 825 401 786 q 282 883 328 864 q 244 758 271 840 q 206 633 217 675 q 200 169 136 363 q 249 82 218 113 q 301 53 276 53 q 360 81 326 53 q 465 274 432 140 z "},"Ö":{"ha":614,"x_min":-1,"x_max":596,"o":"m 557 689 q 592 450 588 582 q 567 214 596 314 q 485 49 540 121 q 347 -46 431 -24 q 190 -27 264 -68 q 76 94 115 14 q 31 500 -1 258 q 78 713 43 594 q 146 901 113 835 q 126 939 121 915 q 169 972 131 961 q 342 957 251 996 q 475 851 421 922 q 557 689 529 781 m 465 274 q 457 646 507 450 q 423 742 444 697 q 365 825 401 786 q 282 883 328 864 q 244 758 271 840 q 206 633 217 675 q 200 169 136 363 q 249 82 218 113 q 301 53 276 53 q 360 81 326 53 q 465 274 432 140 z "},"Ø":{"ha":614,"x_min":-1,"x_max":596,"o":"m 557 689 q 592 450 588 582 q 567 214 596 314 q 485 49 540 121 q 347 -46 431 -24 q 190 -27 264 -68 q 76 94 115 14 q 31 500 -1 258 q 78 713 43 594 q 146 901 113 835 q 126 939 121 915 q 169 972 131 961 q 342 957 251 996 q 475 851 421 922 q 557 689 529 781 m 465 274 q 457 646 507 450 q 423 742 444 697 q 365 825 401 786 q 282 883 328 864 q 244 758 271 840 q 206 633 217 675 q 200 169 136 363 q 249 82 218 113 q 301 53 276 53 q 360 81 326 53 q 465 274 432 140 z "},"P":{"ha":699,"x_min":0,"x_max":700,"o":"m 600 878 q 695 672 690 794 q 617 460 700 550 q 449 361 550 388 q 247 357 347 335 q 247 265 247 326 q 247 172 247 203 q 247 124 247 157 q 247 76 247 92 q 248 52 247 68 q 249 24 249 36 q 246 0 249 11 q 204 -44 240 -32 q 140 -43 168 -56 q 101 1 106 -29 q 100 76 100 6 q 100 153 100 101 q 100 492 100 482 q 99 588 100 513 q 98 713 97 664 q 103 810 99 763 q 81 794 88 799 q 60 783 74 789 q 35 781 46 778 q 13 793 24 783 q 3 807 6 800 q 4 821 1 814 q 10 833 7 828 q 21 847 13 839 q 33 858 29 854 q 47 868 38 861 q 58 875 57 875 q 97 903 78 890 q 117 921 114 914 q 119 932 118 924 q 121 944 119 940 q 147 974 126 964 q 186 978 165 982 q 218 957 207 974 q 338 976 278 975 q 600 878 490 976 m 454 489 q 540 609 518 533 q 532 756 563 685 q 410 868 494 838 q 235 875 325 899 q 247 722 244 810 q 246 569 249 635 q 246 546 246 561 q 246 526 246 531 q 246 489 246 489 q 308 460 251 469 q 454 489 388 447 z "},"Q":{"ha":644,"x_min":17,"x_max":642,"o":"m 611 574 q 558 135 642 354 q 556 107 550 115 q 560 101 557 104 q 565 96 563 99 q 571 90 568 93 q 576 85 574 88 q 604 51 599 60 q 606 -10 629 17 q 546 -24 583 -33 q 493 18 521 -17 q 307 -44 418 -64 q 149 57 215 -29 q 39 435 43 192 q 60 713 36 582 q 74 782 68 758 q 85 804 78 797 q 138 824 103 822 q 189 808 169 824 q 203 779 201 797 q 201 746 206 761 q 183 471 183 549 q 224 203 183 306 q 300 88 254 128 q 365 69 338 54 q 401 110 383 79 q 335 168 346 154 q 333 204 322 186 q 438 203 357 247 q 479 624 508 411 q 459 710 474 669 q 420 788 444 751 q 358 845 396 824 q 272 867 319 867 q 172 849 232 867 q 138 838 169 849 q 89 824 106 826 q 41 835 64 821 q 21 875 18 850 q 51 908 25 896 q 132 936 76 921 q 304 956 226 963 q 437 908 376 947 q 535 804 497 868 q 611 574 593 703 z "},"R":{"ha":603,"x_min":15,"x_max":606,"o":"m 353 967 q 536 861 472 942 q 582 649 604 775 q 473 438 561 528 q 263 308 385 347 q 354 222 308 250 q 469 197 406 192 q 535 182 504 201 q 553 128 567 163 q 394 86 531 65 q 210 174 293 100 q 211 94 211 147 q 211 13 211 40 q 179 -46 211 -29 q 119 -52 154 -58 q 69 -19 83 -46 q 64 22 64 -10 q 64 96 64 57 q 63 257 63 176 q 63 359 63 303 q 63 476 63 415 q 64 578 64 538 q 79 871 64 761 q 19 894 28 858 q 29 922 17 911 q 66 942 42 933 q 96 953 90 950 q 138 969 124 969 q 156 971 144 971 q 178 972 168 971 q 196 974 188 972 q 353 967 272 982 m 321 472 q 420 606 388 526 q 432 764 453 686 q 349 869 414 839 q 200 897 283 900 q 211 774 208 840 q 214 659 214 707 q 212 533 214 611 q 210 414 210 454 q 321 472 268 431 z "},"S":{"ha":574,"x_min":3,"x_max":571,"o":"m 471 397 q 552 256 535 338 q 535 93 569 174 q 486 15 517 50 q 414 -45 456 -21 q 326 -78 372 -69 q 192 -59 258 -87 q 99 29 126 -31 q 99 152 69 92 q 193 238 128 213 q 248 241 217 249 q 293 208 279 233 q 292 166 306 185 q 253 136 279 147 q 251 135 253 135 q 231 102 235 125 q 238 64 228 79 q 285 34 254 35 q 340 53 315 33 q 404 135 383 83 q 414 239 425 188 q 372 317 404 288 q 289 367 340 346 q 147 443 194 406 q 13 664 28 533 q 26 794 4 731 q 96 902 47 857 q 210 966 144 947 q 339 972 275 985 q 467 903 414 958 q 525 772 521 847 q 490 671 531 693 q 413 671 453 649 q 388 697 394 681 q 385 714 385 706 q 386 732 385 722 q 388 749 388 742 q 349 837 388 800 q 261 861 310 874 q 192 814 219 850 q 158 733 165 778 q 201 571 144 646 q 333 472 246 510 q 358 462 340 469 q 383 451 375 454 q 405 440 390 447 q 429 428 419 433 q 450 414 439 422 q 471 397 461 406 z "},"T":{"ha":613,"x_min":-25,"x_max":638,"o":"m 629 949 q 624 921 636 935 q 592 899 610 903 q 543 899 574 896 q 467 901 506 900 q 364 904 417 904 q 365 832 364 894 q 367 572 367 790 q 367 46 367 525 q 367 11 367 21 q 360 -15 367 1 q 340 -42 354 -32 q 266 -52 307 -65 q 221 8 225 -39 q 218 50 218 28 q 219 101 218 72 q 219 143 219 129 q 219 669 219 582 q 218 741 219 688 q 218 831 217 794 q 225 903 219 868 q 169 901 194 901 q 122 898 158 900 q 60 896 85 896 q 13 900 36 896 q -18 928 -12 904 q 1 963 -24 951 q 32 972 17 968 q 67 978 47 975 q 98 981 86 981 q 133 983 110 982 q 164 985 157 985 q 318 990 240 989 q 476 988 396 990 q 553 983 515 986 q 585 980 574 982 q 608 970 596 978 q 629 949 621 963 z "},"U":{"ha":658,"x_min":28,"x_max":621,"o":"m 565 974 q 591 968 579 972 q 611 954 603 964 q 621 931 619 944 q 621 929 621 929 q 607 599 619 858 q 600 306 600 440 q 603 171 600 269 q 606 18 607 72 q 581 -29 606 -14 q 524 -39 556 -44 q 491 -25 504 -35 q 472 3 478 -15 q 465 33 467 21 q 461 69 463 44 q 371 15 418 35 q 271 -7 324 -4 q 168 14 218 -10 q 113 55 136 29 q 76 107 89 81 q 54 172 63 133 q 43 238 46 211 q 39 307 40 265 q 46 714 28 511 q 49 751 47 728 q 53 790 51 774 q 56 826 54 806 q 62 866 58 847 q 69 901 65 885 q 132 965 83 961 q 175 958 154 967 q 204 929 196 949 q 207 847 213 910 q 202 801 206 832 q 197 756 199 771 q 183 342 175 517 q 193 240 188 290 q 219 133 201 163 q 238 115 228 122 q 258 103 247 107 q 280 99 268 100 q 303 99 292 97 q 327 105 315 101 q 351 114 339 108 q 373 125 363 119 q 392 138 383 131 q 433 171 410 150 q 454 206 453 188 q 454 256 456 215 q 454 307 453 297 q 458 514 454 400 q 504 922 468 751 q 565 974 515 976 z "},"Ù":{"ha":658,"x_min":28,"x_max":621,"o":"m 565 974 q 591 968 579 972 q 611 954 603 964 q 621 931 619 944 q 621 929 621 929 q 607 599 619 858 q 600 306 600 440 q 603 171 600 269 q 606 18 607 72 q 581 -29 606 -14 q 524 -39 556 -44 q 491 -25 504 -35 q 472 3 478 -15 q 465 33 467 21 q 461 69 463 44 q 371 15 418 35 q 271 -7 324 -4 q 168 14 218 -10 q 113 55 136 29 q 76 107 89 81 q 54 172 63 133 q 43 238 46 211 q 39 307 40 265 q 46 714 28 511 q 49 751 47 728 q 53 790 51 774 q 56 826 54 806 q 62 866 58 847 q 69 901 65 885 q 132 965 83 961 q 175 958 154 967 q 204 929 196 949 q 207 847 213 910 q 202 801 206 832 q 197 756 199 771 q 183 342 175 517 q 193 240 188 290 q 219 133 201 163 q 238 115 228 122 q 258 103 247 107 q 280 99 268 100 q 303 99 292 97 q 327 105 315 101 q 351 114 339 108 q 373 125 363 119 q 392 138 383 131 q 433 171 410 150 q 454 206 453 188 q 454 256 456 215 q 454 307 453 297 q 458 514 454 400 q 504 922 468 751 q 565 974 515 976 z "},"Ú":{"ha":658,"x_min":28,"x_max":621,"o":"m 565 974 q 591 968 579 972 q 611 954 603 964 q 621 931 619 944 q 621 929 621 929 q 607 599 619 858 q 600 306 600 440 q 603 171 600 269 q 606 18 607 72 q 581 -29 606 -14 q 524 -39 556 -44 q 491 -25 504 -35 q 472 3 478 -15 q 465 33 467 21 q 461 69 463 44 q 371 15 418 35 q 271 -7 324 -4 q 168 14 218 -10 q 113 55 136 29 q 76 107 89 81 q 54 172 63 133 q 43 238 46 211 q 39 307 40 265 q 46 714 28 511 q 49 751 47 728 q 53 790 51 774 q 56 826 54 806 q 62 866 58 847 q 69 901 65 885 q 132 965 83 961 q 175 958 154 967 q 204 929 196 949 q 207 847 213 910 q 202 801 206 832 q 197 756 199 771 q 183 342 175 517 q 193 240 188 290 q 219 133 201 163 q 238 115 228 122 q 258 103 247 107 q 280 99 268 100 q 303 99 292 97 q 327 105 315 101 q 351 114 339 108 q 373 125 363 119 q 392 138 383 131 q 433 171 410 150 q 454 206 453 188 q 454 256 456 215 q 454 307 453 297 q 458 514 454 400 q 504 922 468 751 q 565 974 515 976 z "},"Û":{"ha":658,"x_min":28,"x_max":621,"o":"m 565 974 q 591 968 579 972 q 611 954 603 964 q 621 931 619 944 q 621 929 621 929 q 607 599 619 858 q 600 306 600 440 q 603 171 600 269 q 606 18 607 72 q 581 -29 606 -14 q 524 -39 556 -44 q 491 -25 504 -35 q 472 3 478 -15 q 465 33 467 21 q 461 69 463 44 q 371 15 418 35 q 271 -7 324 -4 q 168 14 218 -10 q 113 55 136 29 q 76 107 89 81 q 54 172 63 133 q 43 238 46 211 q 39 307 40 265 q 46 714 28 511 q 49 751 47 728 q 53 790 51 774 q 56 826 54 806 q 62 866 58 847 q 69 901 65 885 q 132 965 83 961 q 175 958 154 967 q 204 929 196 949 q 207 847 213 910 q 202 801 206 832 q 197 756 199 771 q 183 342 175 517 q 193 240 188 290 q 219 133 201 163 q 238 115 228 122 q 258 103 247 107 q 280 99 268 100 q 303 99 292 97 q 327 105 315 101 q 351 114 339 108 q 373 125 363 119 q 392 138 383 131 q 433 171 410 150 q 454 206 453 188 q 454 256 456 215 q 454 307 453 297 q 458 514 454 400 q 504 922 468 751 q 565 974 515 976 z "},"Ü":{"ha":658,"x_min":28,"x_max":621,"o":"m 565 974 q 591 968 579 972 q 611 954 603 964 q 621 931 619 944 q 621 929 621 929 q 607 599 619 858 q 600 306 600 440 q 603 171 600 269 q 606 18 607 72 q 581 -29 606 -14 q 524 -39 556 -44 q 491 -25 504 -35 q 472 3 478 -15 q 465 33 467 21 q 461 69 463 44 q 371 15 418 35 q 271 -7 324 -4 q 168 14 218 -10 q 113 55 136 29 q 76 107 89 81 q 54 172 63 133 q 43 238 46 211 q 39 307 40 265 q 46 714 28 511 q 49 751 47 728 q 53 790 51 774 q 56 826 54 806 q 62 866 58 847 q 69 901 65 885 q 132 965 83 961 q 175 958 154 967 q 204 929 196 949 q 207 847 213 910 q 202 801 206 832 q 197 756 199 771 q 183 342 175 517 q 193 240 188 290 q 219 133 201 163 q 238 115 228 122 q 258 103 247 107 q 280 99 268 100 q 303 99 292 97 q 327 105 315 101 q 351 114 339 108 q 373 125 363 119 q 392 138 383 131 q 433 171 410 150 q 454 206 453 188 q 454 256 456 215 q 454 307 453 297 q 458 514 454 400 q 504 922 468 751 q 565 974 515 976 z "},"V":{"ha":604,"x_min":6,"x_max":610,"o":"m 565 981 q 604 954 594 972 q 608 947 607 951 q 609 939 608 943 q 609 931 610 935 q 608 922 608 926 q 606 913 607 918 q 603 905 604 908 q 601 897 603 901 q 599 890 600 893 q 585 842 593 868 q 571 797 578 817 q 554 751 564 778 q 539 706 544 724 q 424 311 469 492 q 381 135 403 233 q 360 46 371 96 q 356 30 358 40 q 353 13 354 19 q 350 -3 353 6 q 343 -19 347 -12 q 279 -53 328 -53 q 211 -24 231 -53 q 202 -3 206 -14 q 195 24 199 8 q 190 44 192 40 q 169 128 179 88 q 125 304 146 217 q 50 657 85 479 q 18 832 21 808 q 8 917 10 881 q 13 965 6 954 q 74 997 28 997 q 135 964 119 996 q 156 888 143 949 q 171 806 163 857 q 203 629 185 718 q 276 296 235 467 q 400 715 339 526 q 467 906 451 872 q 472 917 468 910 q 477 930 475 925 q 483 942 479 935 q 491 955 488 950 q 499 965 494 960 q 508 974 503 969 q 563 982 529 986 q 564 981 563 982 q 565 981 565 981 z "},"W":{"ha":1001,"x_min":7,"x_max":1014,"o":"m 878 971 q 923 1006 889 999 q 985 996 957 1013 q 1007 946 1013 979 q 999 913 1004 931 q 987 872 994 894 q 976 840 979 850 q 946 738 961 790 q 879 525 914 635 q 744 100 818 326 q 735 69 740 90 q 724 31 729 47 q 711 1 718 15 q 679 -28 701 -19 q 629 -31 657 -37 q 585 -7 601 -25 q 574 6 579 -1 q 565 22 569 14 q 558 38 561 31 q 551 55 556 44 q 544 71 547 65 q 514 156 529 108 q 461 331 494 214 q 388 47 404 100 q 381 27 386 43 q 373 2 376 11 q 365 -19 369 -7 q 353 -41 360 -32 q 338 -57 346 -50 q 261 -71 304 -83 q 208 -17 228 -61 q 163 108 183 42 q 94 388 125 225 q 46 676 75 488 q 24 821 29 785 q 18 850 22 828 q 13 881 14 872 q 10 910 11 889 q 13 939 8 932 q 57 976 21 969 q 117 967 93 983 q 157 894 142 953 q 181 760 163 868 q 197 650 185 729 q 217 530 210 571 q 235 424 224 489 q 258 305 246 360 q 286 199 271 250 q 317 304 289 206 q 361 453 344 403 q 383 518 372 489 q 407 571 400 564 q 465 596 425 596 q 506 585 488 596 q 535 553 524 574 q 554 517 547 533 q 569 475 561 500 q 642 229 629 268 q 876 969 764 582 q 878 971 878 971 z "},"X":{"ha":613,"x_min":-19,"x_max":619,"o":"m 511 189 q 581 68 544 128 q 592 51 583 64 q 605 31 600 39 q 614 10 610 22 q 618 -11 618 -1 q 587 -53 615 -39 q 529 -62 558 -67 q 482 -35 499 -60 q 408 89 467 -12 q 282 326 343 203 q 160 69 196 150 q 138 19 156 61 q 110 -46 121 -24 q 58 -87 89 -83 q 5 -78 29 -93 q -17 -35 -19 -62 q -8 -3 -15 -19 q 11 35 -1 13 q 28 64 24 57 q 82 176 46 101 q 197 413 133 286 q 205 428 199 417 q 213 442 211 439 q 217 458 214 446 q 215 474 219 469 q 202 503 211 483 q 192 528 193 524 q 143 650 167 588 q 69 892 93 783 q 76 963 58 942 q 131 981 96 985 q 152 974 142 979 q 170 960 163 969 q 184 942 178 951 q 196 919 190 933 q 204 897 201 906 q 212 874 207 889 q 219 853 217 858 q 306 625 249 769 q 432 860 400 803 q 494 958 467 924 q 536 981 510 978 q 584 967 567 983 q 589 921 601 950 q 558 853 576 888 q 515 775 540 819 q 479 710 490 731 q 417 592 439 635 q 386 532 401 563 q 378 519 385 529 q 371 505 372 508 q 367 491 369 501 q 368 476 364 481 q 511 189 436 326 z "},"Y":{"ha":614,"x_min":17,"x_max":596,"o":"m 558 888 q 574 774 565 857 q 572 381 596 553 q 282 -40 519 -25 q 230 -38 260 -43 q 170 -23 200 -33 q 122 9 140 -12 q 106 58 103 31 q 138 99 110 89 q 197 102 165 110 q 244 76 228 94 q 247 75 246 76 q 253 74 250 75 q 260 74 257 74 q 266 73 263 74 q 272 72 269 72 q 379 185 336 82 q 417 321 400 235 q 229 319 324 288 q 79 432 135 350 q 44 503 57 467 q 26 585 31 539 q 20 660 21 632 q 22 747 19 688 q 24 824 24 806 q 21 878 24 835 q 21 931 18 921 q 50 976 25 963 q 103 984 74 990 q 149 956 133 978 q 171 873 168 926 q 169 785 174 819 q 167 749 168 772 q 166 711 167 725 q 165 676 165 697 q 166 638 165 654 q 169 601 167 621 q 176 565 172 582 q 223 465 189 510 q 307 417 257 421 q 350 422 329 414 q 397 445 371 429 q 435 467 422 461 q 436 713 440 568 q 433 774 435 733 q 431 833 432 814 q 430 851 431 838 q 429 873 429 865 q 430 892 429 881 q 433 914 431 904 q 439 932 435 924 q 481 960 450 954 q 532 951 511 967 q 540 945 536 949 q 545 936 543 942 q 549 927 547 931 q 553 917 551 924 q 555 907 554 910 q 557 897 556 904 q 558 888 558 889 z "},"Ý":{"ha":614,"x_min":17,"x_max":596,"o":"m 558 888 q 574 774 565 857 q 572 381 596 553 q 282 -40 519 -25 q 230 -38 260 -43 q 170 -23 200 -33 q 122 9 140 -12 q 106 58 103 31 q 138 99 110 89 q 197 102 165 110 q 244 76 228 94 q 247 75 246 76 q 253 74 250 75 q 260 74 257 74 q 266 73 263 74 q 272 72 269 72 q 379 185 336 82 q 417 321 400 235 q 229 319 324 288 q 79 432 135 350 q 44 503 57 467 q 26 585 31 539 q 20 660 21 632 q 22 747 19 688 q 24 824 24 806 q 21 878 24 835 q 21 931 18 921 q 50 976 25 963 q 103 984 74 990 q 149 956 133 978 q 171 873 168 926 q 169 785 174 819 q 167 749 168 772 q 166 711 167 725 q 165 676 165 697 q 166 638 165 654 q 169 601 167 621 q 176 565 172 582 q 223 465 189 510 q 307 417 257 421 q 350 422 329 414 q 397 445 371 429 q 435 467 422 461 q 436 713 440 568 q 433 774 435 733 q 431 833 432 814 q 430 851 431 838 q 429 873 429 865 q 430 892 429 881 q 433 914 431 904 q 439 932 435 924 q 481 960 450 954 q 532 951 511 967 q 540 945 536 949 q 545 936 543 942 q 549 927 547 931 q 553 917 551 924 q 555 907 554 910 q 557 897 556 904 q 558 888 558 889 z "},"Ÿ":{"ha":614,"x_min":17,"x_max":596,"o":"m 558 888 q 574 774 565 857 q 572 381 596 553 q 282 -40 519 -25 q 230 -38 260 -43 q 170 -23 200 -33 q 122 9 140 -12 q 106 58 103 31 q 138 99 110 89 q 197 102 165 110 q 244 76 228 94 q 247 75 246 76 q 253 74 250 75 q 260 74 257 74 q 266 73 263 74 q 272 72 269 72 q 379 185 336 82 q 417 321 400 235 q 229 319 324 288 q 79 432 135 350 q 44 503 57 467 q 26 585 31 539 q 20 660 21 632 q 22 747 19 688 q 24 824 24 806 q 21 878 24 835 q 21 931 18 921 q 50 976 25 963 q 103 984 74 990 q 149 956 133 978 q 171 873 168 926 q 169 785 174 819 q 167 749 168 772 q 166 711 167 725 q 165 676 165 697 q 166 638 165 654 q 169 601 167 621 q 176 565 172 582 q 223 465 189 510 q 307 417 257 421 q 350 422 329 414 q 397 445 371 429 q 435 467 422 461 q 436 713 440 568 q 433 774 435 733 q 431 833 432 814 q 430 851 431 838 q 429 873 429 865 q 430 892 429 881 q 433 914 431 904 q 439 932 435 924 q 481 960 450 954 q 532 951 511 967 q 540 945 536 949 q 545 936 543 942 q 549 927 547 931 q 553 917 551 924 q 555 907 554 910 q 557 897 556 904 q 558 888 558 889 z "},"Z":{"ha":653,"x_min":-1,"x_max":661,"o":"m 649 46 q 653 6 661 25 q 624 -24 644 -12 q 590 -33 608 -31 q 544 -33 572 -35 q 510 -32 515 -32 q 244 -47 392 -35 q 190 -52 238 -47 q 115 -58 142 -57 q 87 -59 101 -58 q 57 -55 72 -60 q 35 -37 42 -50 q 35 21 18 -15 q 69 94 46 46 q 94 146 92 142 q 153 272 115 190 q 203 375 192 353 q 155 340 183 369 q 103 304 126 310 q 59 313 78 300 q 42 353 40 326 q 111 443 44 401 q 250 475 174 483 q 438 858 356 696 q 236 858 325 858 q 187 857 225 857 q 128 857 149 857 q 50 863 74 856 q 6 894 13 874 q 18 932 -1 915 q 40 945 28 940 q 68 952 53 950 q 94 955 83 954 q 124 955 104 956 q 149 956 143 954 q 344 960 214 956 q 428 964 354 960 q 540 967 503 968 q 569 962 556 967 q 596 947 583 957 q 611 922 608 936 q 612 906 615 918 q 607 890 608 894 q 599 875 606 886 q 592 860 593 864 q 551 772 572 817 q 383 419 485 626 q 426 411 411 403 q 433 417 426 413 q 444 424 440 422 q 490 428 465 432 q 529 410 513 425 q 543 375 546 396 q 516 329 540 347 q 461 304 492 311 q 336 319 400 292 q 204 49 232 106 q 476 72 333 65 q 518 75 483 72 q 569 78 553 78 q 609 71 585 78 q 647 47 633 64 l 649 47 q 649 46 649 46 z "},"[":{"ha":251,"x_min":43,"x_max":418,"o":"m 335 -32 q 390 -51 367 -33 q 406 -96 414 -68 q 393 -115 401 -107 q 376 -128 385 -124 q 351 -134 367 -132 q 326 -136 335 -136 q 300 -136 318 -136 q 279 -136 282 -136 q 176 -136 196 -136 q 106 -129 121 -136 q 81 -115 90 -124 q 67 -91 71 -106 q 63 -67 64 -76 q 61 -37 61 -57 q 61 -11 61 -18 q 47 385 50 188 q 49 782 44 594 q 58 979 51 869 q 74 1146 65 1108 q 57 1182 51 1160 q 103 1215 63 1208 q 221 1221 126 1219 q 283 1223 224 1221 q 346 1222 343 1225 q 399 1199 379 1221 q 394 1150 418 1176 q 325 1132 375 1132 q 260 1131 301 1131 q 201 1132 218 1132 q 200 1013 203 1117 q 197 886 200 979 q 208 -32 185 407 q 335 -32 335 -32 z "},"\\":{"ha":508,"x_min":68,"x_max":440,"o":"m 428 167 q 439 113 439 126 q 408 69 438 83 q 346 67 375 54 q 304 111 317 79 q 281 176 293 140 q 262 238 269 213 q 242 306 254 264 q 225 369 231 349 q 153 633 185 510 q 88 900 107 806 q 69 1021 69 989 q 94 1068 69 1056 q 150 1068 119 1079 q 190 1017 175 1057 q 213 953 201 989 q 230 891 224 918 q 246 824 236 864 q 261 761 256 783 q 406 242 314 557 q 416 206 408 232 q 428 167 424 181 z "},"]":{"ha":253,"x_min":-168,"x_max":207,"o":"m 196 926 q 204 503 206 743 q 197 133 204 319 q 188 -51 193 42 q 188 -63 188 -56 q 187 -76 188 -71 q 185 -87 186 -81 q 182 -99 185 -93 q 176 -110 179 -104 q 132 -133 161 -128 q 106 -137 119 -136 q 73 -137 93 -137 q 47 -136 53 -136 q 17 -136 33 -136 q -17 -136 0 -136 q -47 -136 -35 -136 q -59 -136 -49 -136 q -72 -135 -69 -136 q -85 -135 -75 -135 q -99 -134 -94 -135 q -110 -132 -103 -133 q -123 -128 -118 -131 q -133 -122 -128 -125 q -143 -115 -139 -119 q -151 -104 -147 -110 q -151 -65 -161 -83 q -119 -39 -142 -47 q -46 -32 -103 -33 q -2 -32 -32 -32 q 42 -32 28 -32 q 53 228 49 99 q 57 688 60 451 q 53 921 56 785 q 50 1031 53 925 q 50 1132 49 1114 q -10 1131 32 1132 q -74 1132 -51 1131 q -143 1150 -124 1132 q -147 1199 -167 1176 q -96 1222 -128 1221 q -33 1223 -93 1225 q 29 1221 26 1221 q 149 1215 125 1219 q 194 1182 189 1208 q 176 1146 199 1160 q 188 1049 181 1126 q 196 926 192 1008 z "},"^":{"ha":374,"x_min":15,"x_max":365,"o":"m 343 850 q 349 796 365 822 q 332 778 343 785 q 310 770 321 771 q 290 772 300 769 q 271 783 279 775 q 251 805 263 790 q 239 822 240 819 q 179 892 204 861 q 175 896 178 893 q 106 788 138 835 q 58 769 88 763 q 36 781 46 772 q 22 798 26 789 q 17 817 17 807 q 21 837 17 828 q 35 860 25 846 q 46 876 44 874 q 92 949 71 917 q 131 1007 125 1001 q 133 1010 132 1008 q 229 986 167 1057 q 343 850 297 906 z "},"_":{"ha":622,"x_min":10,"x_max":613,"o":"m 603 68 q 597 28 611 46 q 558 4 582 10 q 528 -1 544 0 q 500 0 513 -1 q 469 3 488 1 q 440 7 450 6 q 341 9 392 8 q 219 9 290 10 q 122 8 149 8 q 22 39 42 8 q 19 76 11 58 q 46 101 26 93 q 81 112 61 108 q 110 116 100 115 q 149 117 121 117 q 181 117 178 117 q 349 117 264 119 q 511 110 429 115 q 547 106 535 107 q 576 96 560 104 q 601 71 592 88 q 602 70 601 71 q 603 68 603 69 z "},"`":{"ha":233,"x_min":8,"x_max":225,"o":"m 210 879 q 208 831 225 851 q 160 807 190 810 q 110 824 128 806 q 99 837 104 829 q 89 855 94 844 q 81 869 83 865 q 49 922 56 911 q 41 934 47 925 q 31 949 35 943 q 22 965 28 954 q 15 981 17 975 q 11 997 13 988 q 13 1013 10 1007 q 35 1037 19 1028 q 69 1046 51 1046 q 140 996 108 1046 q 180 930 154 974 q 210 879 206 886 z "},"a":{"ha":547,"x_min":15,"x_max":544,"o":"m 536 82 q 507 25 543 43 q 423 19 465 7 q 353 68 381 32 q 238 20 297 28 q 117 43 179 13 q 42 123 67 71 q 18 229 17 175 q 35 339 19 283 q 138 490 67 439 q 240 532 185 524 q 350 521 296 540 q 429 563 375 574 q 482 476 481 551 q 477 381 482 443 q 471 293 472 319 q 469 206 471 249 q 471 164 469 179 q 481 124 475 125 q 536 82 531 114 m 328 365 q 318 393 328 382 q 296 415 306 410 q 274 422 292 418 q 200 368 233 422 q 168 282 179 333 q 210 131 143 167 q 231 136 221 131 q 272 167 240 142 q 325 199 303 192 q 328 365 324 303 z "},"à":{"ha":547,"x_min":15,"x_max":544,"o":"m 536 82 q 507 25 543 43 q 423 19 465 7 q 353 68 381 32 q 238 20 297 28 q 117 43 179 13 q 42 123 67 71 q 18 229 17 175 q 35 339 19 283 q 138 490 67 439 q 240 532 185 524 q 350 521 296 540 q 429 563 375 574 q 482 476 481 551 q 477 381 482 443 q 471 293 472 319 q 469 206 471 249 q 471 164 469 179 q 481 124 475 125 q 536 82 531 114 m 328 365 q 318 393 328 382 q 296 415 306 410 q 274 422 292 418 q 200 368 233 422 q 168 282 179 333 q 210 131 143 167 q 231 136 221 131 q 272 167 240 142 q 325 199 303 192 q 328 365 324 303 z "},"á":{"ha":547,"x_min":15,"x_max":544,"o":"m 536 82 q 507 25 543 43 q 423 19 465 7 q 353 68 381 32 q 238 20 297 28 q 117 43 179 13 q 42 123 67 71 q 18 229 17 175 q 35 339 19 283 q 138 490 67 439 q 240 532 185 524 q 350 521 296 540 q 429 563 375 574 q 482 476 481 551 q 477 381 482 443 q 471 293 472 319 q 469 206 471 249 q 471 164 469 179 q 481 124 475 125 q 536 82 531 114 m 328 365 q 318 393 328 382 q 296 415 306 410 q 274 422 292 418 q 200 368 233 422 q 168 282 179 333 q 210 131 143 167 q 231 136 221 131 q 272 167 240 142 q 325 199 303 192 q 328 365 324 303 z "},"â":{"ha":547,"x_min":15,"x_max":544,"o":"m 536 82 q 507 25 543 43 q 423 19 465 7 q 353 68 381 32 q 238 20 297 28 q 117 43 179 13 q 42 123 67 71 q 18 229 17 175 q 35 339 19 283 q 138 490 67 439 q 240 532 185 524 q 350 521 296 540 q 429 563 375 574 q 482 476 481 551 q 477 381 482 443 q 471 293 472 319 q 469 206 471 249 q 471 164 469 179 q 481 124 475 125 q 536 82 531 114 m 328 365 q 318 393 328 382 q 296 415 306 410 q 274 422 292 418 q 200 368 233 422 q 168 282 179 333 q 210 131 143 167 q 231 136 221 131 q 272 167 240 142 q 325 199 303 192 q 328 365 324 303 z "},"ã":{"ha":547,"x_min":15,"x_max":544,"o":"m 536 82 q 507 25 543 43 q 423 19 465 7 q 353 68 381 32 q 238 20 297 28 q 117 43 179 13 q 42 123 67 71 q 18 229 17 175 q 35 339 19 283 q 138 490 67 439 q 240 532 185 524 q 350 521 296 540 q 429 563 375 574 q 482 476 481 551 q 477 381 482 443 q 471 293 472 319 q 469 206 471 249 q 471 164 469 179 q 481 124 475 125 q 536 82 531 114 m 328 365 q 318 393 328 382 q 296 415 306 410 q 274 422 292 418 q 200 368 233 422 q 168 282 179 333 q 210 131 143 167 q 231 136 221 131 q 272 167 240 142 q 325 199 303 192 q 328 365 324 303 z "},"ä":{"ha":547,"x_min":15,"x_max":544,"o":"m 536 82 q 507 25 543 43 q 423 19 465 7 q 353 68 381 32 q 238 20 297 28 q 117 43 179 13 q 42 123 67 71 q 18 229 17 175 q 35 339 19 283 q 138 490 67 439 q 240 532 185 524 q 350 521 296 540 q 429 563 375 574 q 482 476 481 551 q 477 381 482 443 q 471 293 472 319 q 469 206 471 249 q 471 164 469 179 q 481 124 475 125 q 536 82 531 114 m 328 365 q 318 393 328 382 q 296 415 306 410 q 274 422 292 418 q 200 368 233 422 q 168 282 179 333 q 210 131 143 167 q 231 136 221 131 q 272 167 240 142 q 325 199 303 192 q 328 365 324 303 z "},"å":{"ha":547,"x_min":15,"x_max":544,"o":"m 536 82 q 507 25 543 43 q 423 19 465 7 q 353 68 381 32 q 238 20 297 28 q 117 43 179 13 q 42 123 67 71 q 18 229 17 175 q 35 339 19 283 q 138 490 67 439 q 240 532 185 524 q 350 521 296 540 q 429 563 375 574 q 482 476 481 551 q 477 381 482 443 q 471 293 472 319 q 469 206 471 249 q 471 164 469 179 q 481 124 475 125 q 536 82 531 114 m 328 365 q 318 393 328 382 q 296 415 306 410 q 274 422 292 418 q 200 368 233 422 q 168 282 179 333 q 210 131 143 167 q 231 136 221 131 q 272 167 240 142 q 325 199 303 192 q 328 365 324 303 z "},"b":{"ha":535,"x_min":36,"x_max":519,"o":"m 419 504 q 494 402 471 464 q 515 277 518 340 q 488 151 513 214 q 369 21 450 56 q 181 11 288 -15 q 149 -31 176 -17 q 91 -38 122 -44 q 46 -8 60 -32 q 40 8 42 -1 q 38 22 38 17 q 38 40 38 28 q 38 56 38 51 q 38 153 38 104 q 43 367 38 260 q 74 771 53 615 q 93 860 81 824 q 124 914 107 903 q 172 925 142 929 q 213 899 201 921 q 221 815 224 872 q 214 710 219 782 q 197 518 204 617 q 310 547 250 550 q 418 506 369 543 q 419 504 418 506 m 335 157 q 369 313 375 231 q 345 399 365 357 q 289 451 325 442 q 215 397 254 460 q 188 308 189 356 q 182 133 183 224 q 199 128 193 129 q 216 124 206 126 q 233 119 226 121 q 250 117 240 118 q 266 116 260 115 q 281 118 272 117 q 297 122 290 119 q 310 130 303 125 q 323 142 317 135 q 335 157 329 149 z "},"c":{"ha":447,"x_min":11,"x_max":451,"o":"m 378 113 q 433 86 415 110 q 429 29 451 63 q 278 -32 389 -25 q 106 27 178 -39 q 22 193 33 93 q 58 418 11 301 q 160 538 92 504 q 304 538 232 574 q 361 490 339 521 q 382 424 383 460 q 360 371 381 390 q 308 354 340 351 q 261 376 278 356 q 253 396 256 385 q 251 409 251 400 q 250 422 251 418 q 246 428 249 424 q 241 438 243 433 q 240 443 239 442 q 239 442 239 442 q 227 434 233 439 q 217 424 221 429 q 208 410 213 419 q 201 396 204 401 q 195 379 199 390 q 190 364 192 368 q 186 348 189 360 q 183 335 183 336 q 172 182 160 242 q 206 110 181 142 q 267 81 231 78 q 301 90 282 82 q 338 106 319 99 q 374 113 357 113 q 376 114 375 114 q 378 113 376 114 z "},"ç":{"ha":447,"x_min":11,"x_max":451,"o":"m 378 113 q 433 86 415 110 q 429 29 451 63 q 278 -32 389 -25 q 106 27 178 -39 q 22 193 33 93 q 58 418 11 301 q 160 538 92 504 q 304 538 232 574 q 361 490 339 521 q 382 424 383 460 q 360 371 381 390 q 308 354 340 351 q 261 376 278 356 q 253 396 256 385 q 251 409 251 400 q 250 422 251 418 q 246 428 249 424 q 241 438 243 433 q 240 443 239 442 q 239 442 239 442 q 227 434 233 439 q 217 424 221 429 q 208 410 213 419 q 201 396 204 401 q 195 379 199 390 q 190 364 192 368 q 186 348 189 360 q 183 335 183 336 q 172 182 160 242 q 206 110 181 142 q 267 81 231 78 q 301 90 282 82 q 338 106 319 99 q 374 113 357 113 q 376 114 375 114 q 378 113 376 114 z "},"d":{"ha":569,"x_min":-6,"x_max":603,"o":"m 563 1011 q 586 911 601 994 q 524 206 513 508 q 536 32 525 133 q 538 -24 542 6 q 510 -68 535 -54 q 424 -69 468 -92 q 405 -55 413 -64 q 394 -31 397 -46 q 390 -7 390 -15 q 388 21 389 1 q 153 4 263 -39 q 32 125 63 40 q 47 349 -4 228 q 185 504 92 450 q 385 536 278 558 q 421 792 397 672 q 446 908 425 814 q 481 994 458 965 q 481 997 481 996 q 483 997 482 997 q 522 1017 499 1013 q 563 1011 544 1021 m 376 163 q 378 174 378 167 q 378 190 379 181 q 376 201 376 199 q 375 276 375 239 q 375 358 375 318 q 376 378 375 363 q 376 401 376 393 q 374 416 376 413 q 360 425 371 419 l 358 425 q 336 431 336 429 q 230 383 274 433 q 171 267 186 333 q 166 183 160 232 q 204 113 172 135 q 349 140 256 74 q 358 146 350 140 q 370 155 365 151 q 376 163 375 158 z "},"e":{"ha":482,"x_min":1,"x_max":467,"o":"m 461 117 q 422 46 465 83 q 335 1 388 15 q 135 32 228 -25 q 22 196 43 89 q 54 390 3 294 q 199 525 106 485 q 294 544 242 546 q 386 517 346 543 q 442 444 426 490 q 443 353 458 399 q 378 265 426 299 q 276 223 331 232 q 164 221 222 214 q 191 152 171 183 q 244 108 211 121 q 265 104 254 106 q 285 106 275 103 q 302 111 294 108 q 320 120 310 114 q 336 131 331 126 q 353 143 342 135 q 354 144 354 144 q 416 154 376 161 q 461 117 456 147 m 232 400 q 181 328 199 368 q 260 338 232 326 q 296 367 286 347 q 304 405 306 379 q 285 432 303 431 q 232 400 261 425 z "},"è":{"ha":482,"x_min":1,"x_max":467,"o":"m 461 117 q 422 46 465 83 q 335 1 388 15 q 135 32 228 -25 q 22 196 43 89 q 54 390 3 294 q 199 525 106 485 q 294 544 242 546 q 386 517 346 543 q 442 444 426 490 q 443 353 458 399 q 378 265 426 299 q 276 223 331 232 q 164 221 222 214 q 191 152 171 183 q 244 108 211 121 q 265 104 254 106 q 285 106 275 103 q 302 111 294 108 q 320 120 310 114 q 336 131 331 126 q 353 143 342 135 q 354 144 354 144 q 416 154 376 161 q 461 117 456 147 m 232 400 q 181 328 199 368 q 260 338 232 326 q 296 367 286 347 q 304 405 306 379 q 285 432 303 431 q 232 400 261 425 z "},"é":{"ha":482,"x_min":1,"x_max":467,"o":"m 461 117 q 422 46 465 83 q 335 1 388 15 q 135 32 228 -25 q 22 196 43 89 q 54 390 3 294 q 199 525 106 485 q 294 544 242 546 q 386 517 346 543 q 442 444 426 490 q 443 353 458 399 q 378 265 426 299 q 276 223 331 232 q 164 221 222 214 q 191 152 171 183 q 244 108 211 121 q 265 104 254 106 q 285 106 275 103 q 302 111 294 108 q 320 120 310 114 q 336 131 331 126 q 353 143 342 135 q 354 144 354 144 q 416 154 376 161 q 461 117 456 147 m 232 400 q 181 328 199 368 q 260 338 232 326 q 296 367 286 347 q 304 405 306 379 q 285 432 303 431 q 232 400 261 425 z "},"ê":{"ha":482,"x_min":1,"x_max":467,"o":"m 461 117 q 422 46 465 83 q 335 1 388 15 q 135 32 228 -25 q 22 196 43 89 q 54 390 3 294 q 199 525 106 485 q 294 544 242 546 q 386 517 346 543 q 442 444 426 490 q 443 353 458 399 q 378 265 426 299 q 276 223 331 232 q 164 221 222 214 q 191 152 171 183 q 244 108 211 121 q 265 104 254 106 q 285 106 275 103 q 302 111 294 108 q 320 120 310 114 q 336 131 331 126 q 353 143 342 135 q 354 144 354 144 q 416 154 376 161 q 461 117 456 147 m 232 400 q 181 328 199 368 q 260 338 232 326 q 296 367 286 347 q 304 405 306 379 q 285 432 303 431 q 232 400 261 425 z "},"ë":{"ha":482,"x_min":1,"x_max":467,"o":"m 461 117 q 422 46 465 83 q 335 1 388 15 q 135 32 228 -25 q 22 196 43 89 q 54 390 3 294 q 199 525 106 485 q 294 544 242 546 q 386 517 346 543 q 442 444 426 490 q 443 353 458 399 q 378 265 426 299 q 276 223 331 232 q 164 221 222 214 q 191 152 171 183 q 244 108 211 121 q 265 104 254 106 q 285 106 275 103 q 302 111 294 108 q 320 120 310 114 q 336 131 331 126 q 353 143 342 135 q 354 144 354 144 q 416 154 376 161 q 461 117 456 147 m 232 400 q 181 328 199 368 q 260 338 232 326 q 296 367 286 347 q 304 405 306 379 q 285 432 303 431 q 232 400 261 425 z "},"f":{"ha":374,"x_min":-4,"x_max":628,"o":"m 528 999 q 597 951 567 983 q 600 885 628 918 q 565 865 585 867 q 527 870 544 863 q 486 888 510 878 q 449 899 463 897 q 369 863 404 904 q 310 769 333 822 q 258 510 263 660 q 371 456 375 504 q 351 422 369 432 q 310 413 333 411 q 267 415 288 414 q 257 417 261 417 q 278 122 263 229 q 283 65 281 94 q 270 13 285 36 q 222 -15 256 -10 q 147 21 172 -22 q 138 44 142 31 q 134 68 135 58 q 132 95 133 78 q 131 118 131 113 q 111 414 114 286 q 78 410 90 411 q 44 410 65 408 q 13 420 24 411 q 0 447 1 429 q 111 506 -3 494 q 215 885 119 749 q 354 994 269 963 q 528 999 439 1026 z "},"g":{"ha":586,"x_min":15,"x_max":551,"o":"m 544 525 q 549 300 551 410 q 540 82 547 253 q 531 -110 532 -82 q 497 -254 522 -199 q 399 -359 465 -321 q 260 -389 333 -397 q 156 -344 206 -382 q 117 -256 107 -307 q 141 -214 121 -228 q 189 -206 161 -200 q 231 -239 211 -211 q 279 -279 260 -278 q 281 -278 281 -278 q 315 -267 300 -275 q 341 -245 331 -258 q 360 -218 351 -232 q 373 -183 368 -204 q 381 -147 378 -162 q 385 -108 383 -132 q 388 -70 388 -83 q 389 -32 389 -57 q 389 1 389 -7 q 298 -31 344 -21 q 201 -35 251 -42 q 113 -3 151 -29 q 39 94 61 32 q 19 217 17 156 q 42 339 22 279 q 175 515 79 456 q 303 560 235 553 q 433 536 371 567 q 456 562 439 553 q 492 569 474 571 q 526 557 511 568 q 544 526 542 546 q 544 525 544 526 m 396 136 q 413 400 401 251 q 390 412 401 404 q 365 430 378 419 q 344 446 353 440 q 335 449 340 447 q 223 387 267 444 q 171 256 179 329 q 174 138 163 185 q 206 83 183 99 q 286 85 235 65 q 313 99 297 90 q 340 113 328 107 q 367 126 351 119 q 396 136 382 133 z "},"h":{"ha":581,"x_min":32,"x_max":556,"o":"m 553 135 q 553 101 553 129 q 553 61 554 74 q 546 29 551 49 q 528 -3 540 10 q 479 -24 510 -22 q 428 -10 449 -26 q 413 8 418 -3 q 404 28 407 19 q 401 53 401 38 q 401 76 400 69 q 403 101 401 83 q 404 124 404 119 q 390 338 414 233 q 365 419 379 389 q 344 447 353 443 q 304 432 328 454 q 218 289 257 388 q 189 192 197 235 q 183 92 186 174 q 183 64 183 89 q 182 38 183 39 q 181 9 182 36 q 175 -31 181 -18 q 147 -68 165 -54 q 104 -78 128 -82 q 74 -68 89 -76 q 50 -47 60 -60 q 36 -18 40 -33 q 33 10 33 -6 q 35 46 33 25 q 36 74 36 67 q 39 167 36 79 q 40 258 39 190 q 43 364 42 326 q 54 756 50 671 q 69 944 60 861 q 69 951 69 947 q 75 984 72 974 q 88 1008 78 994 q 114 1025 97 1021 q 152 1024 133 1029 q 181 1003 171 1018 q 188 984 186 994 q 191 955 190 974 q 192 935 192 936 q 196 838 194 889 q 192 465 197 750 q 319 544 249 535 q 456 504 397 556 q 536 347 513 454 q 553 135 554 260 z "},"i":{"ha":229,"x_min":29,"x_max":204,"o":"m 200 493 q 196 407 203 468 q 189 315 193 381 q 179 142 182 226 q 180 104 179 133 q 178 56 181 75 q 168 19 175 36 q 99 -18 149 -22 q 38 33 51 -15 q 31 72 32 51 q 31 126 29 93 q 33 165 33 158 q 43 339 36 251 q 63 493 54 456 q 132 551 76 549 q 134 551 133 551 q 136 551 135 551 q 200 493 194 549 m 85 590 q 67 626 68 606 q 85 660 67 646 q 130 675 104 675 q 175 661 156 675 q 194 627 193 647 q 178 592 194 607 q 133 576 157 576 q 86 589 110 576 q 85 590 86 590 z "},"ì":{"ha":229,"x_min":29,"x_max":204,"o":"m 200 493 q 196 407 203 468 q 189 315 193 381 q 179 142 182 226 q 180 104 179 133 q 178 56 181 75 q 168 19 175 36 q 99 -18 149 -22 q 38 33 51 -15 q 31 72 32 51 q 31 126 29 93 q 33 165 33 158 q 43 339 36 251 q 63 493 54 456 q 132 551 76 549 q 134 551 133 551 q 136 551 135 551 q 200 493 194 549 m 85 590 q 67 626 68 606 q 85 660 67 646 q 130 675 104 675 q 175 661 156 675 q 194 627 193 647 q 178 592 194 607 q 133 576 157 576 q 86 589 110 576 q 85 590 86 590 z "},"í":{"ha":229,"x_min":29,"x_max":204,"o":"m 200 493 q 196 407 203 468 q 189 315 193 381 q 179 142 182 226 q 180 104 179 133 q 178 56 181 75 q 168 19 175 36 q 99 -18 149 -22 q 38 33 51 -15 q 31 72 32 51 q 31 126 29 93 q 33 165 33 158 q 43 339 36 251 q 63 493 54 456 q 132 551 76 549 q 134 551 133 551 q 136 551 135 551 q 200 493 194 549 m 85 590 q 67 626 68 606 q 85 660 67 646 q 130 675 104 675 q 175 661 156 675 q 194 627 193 647 q 178 592 194 607 q 133 576 157 576 q 86 589 110 576 q 85 590 86 590 z "},"î":{"ha":229,"x_min":29,"x_max":204,"o":"m 200 493 q 196 407 203 468 q 189 315 193 381 q 179 142 182 226 q 180 104 179 133 q 178 56 181 75 q 168 19 175 36 q 99 -18 149 -22 q 38 33 51 -15 q 31 72 32 51 q 31 126 29 93 q 33 165 33 158 q 43 339 36 251 q 63 493 54 456 q 132 551 76 549 q 134 551 133 551 q 136 551 135 551 q 200 493 194 549 m 85 590 q 67 626 68 606 q 85 660 67 646 q 130 675 104 675 q 175 661 156 675 q 194 627 193 647 q 178 592 194 607 q 133 576 157 576 q 86 589 110 576 q 85 590 86 590 z "},"ï":{"ha":229,"x_min":29,"x_max":204,"o":"m 200 493 q 196 407 203 468 q 189 315 193 381 q 179 142 182 226 q 180 104 179 133 q 178 56 181 75 q 168 19 175 36 q 99 -18 149 -22 q 38 33 51 -15 q 31 72 32 51 q 31 126 29 93 q 33 165 33 158 q 43 339 36 251 q 63 493 54 456 q 132 551 76 549 q 134 551 133 551 q 136 551 135 551 q 200 493 194 549 m 85 590 q 67 626 68 606 q 85 660 67 646 q 130 675 104 675 q 175 661 156 675 q 194 627 193 647 q 178 592 194 607 q 133 576 157 576 q 86 589 110 576 q 85 590 86 590 z "},"j":{"ha":228,"x_min":-217,"x_max":200,"o":"m 183 358 q 192 11 199 172 q 153 -268 183 -183 q 96 -362 133 -324 q 6 -411 58 -400 q -90 -412 -35 -421 q -178 -379 -144 -404 q -203 -315 -217 -350 q -125 -285 -187 -278 q -68 -297 -114 -285 q -39 -301 -53 -303 q -12 -286 -25 -300 q 29 -156 15 -251 q 47 157 50 -17 q 40 311 46 214 q 33 458 32 447 q 60 540 35 525 q 126 543 88 558 q 168 483 156 531 q 183 358 174 460 m 36 594 q 17 633 17 611 q 36 671 17 656 q 85 686 57 686 q 135 671 114 686 q 156 633 156 657 q 136 594 156 610 q 38 593 93 561 q 36 594 36 594 z "},"k":{"ha":535,"x_min":32,"x_max":525,"o":"m 450 418 q 382 378 415 400 q 256 286 317 338 q 442 174 349 221 q 455 167 444 172 q 470 160 465 163 q 483 151 475 157 q 495 140 490 146 q 503 126 500 135 q 486 72 515 96 q 453 54 471 58 q 411 58 435 50 q 377 72 388 67 q 340 90 367 76 q 186 199 260 133 q 185 155 186 183 q 184 103 185 126 q 182 58 183 79 q 179 -15 181 -12 q 171 -42 178 -31 q 119 -69 154 -65 q 60 -57 83 -72 q 36 -18 39 -43 q 33 22 33 1 q 35 74 33 43 q 36 115 36 106 q 47 393 38 231 q 67 664 56 546 q 94 921 83 864 q 97 938 94 925 q 100 957 99 950 q 104 974 101 964 q 112 991 107 983 q 122 1004 117 999 q 175 1018 143 1021 q 224 994 208 1015 q 232 974 229 986 q 235 953 235 961 q 234 928 235 946 q 233 907 233 910 q 221 758 231 854 q 208 635 211 663 q 192 376 197 500 q 415 535 286 464 q 462 542 436 544 q 506 525 488 540 q 524 488 524 510 q 508 450 525 467 q 492 438 501 443 q 469 427 482 433 q 450 418 456 421 z "},"l":{"ha":349,"x_min":35,"x_max":351,"o":"m 342 85 q 343 49 350 65 q 318 21 336 32 q 297 13 308 17 q 274 8 286 10 q 251 6 261 7 q 228 6 242 6 q 206 4 214 6 q 178 2 196 4 q 145 -1 160 0 q 118 -1 131 -1 q 79 7 96 -3 q 43 74 46 24 q 39 226 40 150 q 43 519 36 374 q 67 807 50 658 q 85 933 76 896 q 124 1011 99 996 q 188 1017 153 1029 q 225 969 219 1007 q 227 937 228 960 q 226 904 226 914 q 222 872 225 894 q 217 840 218 850 q 201 697 207 758 q 189 117 176 407 q 274 122 243 119 q 301 119 288 122 q 325 106 314 115 q 342 85 336 97 z "},"m":{"ha":832,"x_min":32,"x_max":803,"o":"m 800 149 q 801 119 800 140 q 801 83 801 97 q 798 51 800 69 q 789 18 796 32 q 769 -6 782 4 q 715 -17 746 -22 q 665 10 683 -12 q 649 68 649 29 q 651 115 649 83 q 653 163 653 147 q 638 399 654 317 q 628 431 631 425 q 622 438 622 438 q 611 436 621 439 q 567 401 596 431 q 513 332 536 369 q 493 283 494 299 q 493 264 493 271 q 494 244 493 257 q 494 225 494 232 q 496 131 496 183 q 497 102 496 122 q 499 67 499 82 q 496 40 499 51 q 476 14 490 25 q 396 4 442 -11 q 365 29 372 13 q 357 72 357 46 q 356 282 358 161 q 351 393 354 310 q 351 403 351 394 q 351 417 351 411 q 351 431 351 422 q 348 446 350 440 q 343 457 346 451 q 336 465 340 463 q 326 467 332 468 q 275 429 310 467 q 239 388 254 408 q 190 297 211 349 q 181 248 182 276 q 183 199 181 219 q 190 83 185 140 q 192 69 190 79 q 193 53 193 58 q 192 41 193 49 q 190 26 192 33 q 182 14 188 19 q 126 -13 163 -11 q 65 7 89 -15 q 44 60 47 24 q 39 143 42 78 q 36 350 32 247 q 43 458 38 413 q 57 531 49 513 q 97 568 69 557 q 150 569 124 579 q 189 472 193 554 q 360 556 274 564 q 417 538 392 553 q 457 499 442 522 q 479 444 472 475 q 621 533 550 524 q 691 522 657 538 q 749 478 725 507 q 792 342 782 433 q 800 149 801 258 z "},"n":{"ha":538,"x_min":29,"x_max":504,"o":"m 468 501 q 504 367 504 457 q 500 167 504 340 q 499 71 499 86 q 488 32 497 44 q 425 5 467 6 q 363 29 383 4 q 351 57 353 42 q 353 140 351 60 q 357 319 356 299 q 358 406 360 389 q 344 456 356 435 q 343 460 344 457 q 333 465 340 465 q 317 458 329 465 q 264 404 300 449 q 218 338 239 372 q 183 243 186 282 q 181 157 182 200 q 178 63 179 142 q 172 28 178 39 q 114 -4 156 0 q 49 14 72 -8 q 38 28 42 21 q 32 46 33 36 q 31 63 31 56 q 31 83 31 69 q 32 100 32 96 q 39 281 33 192 q 51 438 40 289 q 53 460 53 453 q 56 481 54 467 q 62 504 58 496 q 72 523 65 513 q 86 540 78 533 q 124 556 101 553 q 164 551 146 558 q 200 476 199 536 q 344 554 267 549 q 468 501 424 557 z "},"ñ":{"ha":538,"x_min":29,"x_max":504,"o":"m 468 501 q 504 367 504 457 q 500 167 504 340 q 499 71 499 86 q 488 32 497 44 q 425 5 467 6 q 363 29 383 4 q 351 57 353 42 q 353 140 351 60 q 357 319 356 299 q 358 406 360 389 q 344 456 356 435 q 343 460 344 457 q 333 465 340 465 q 317 458 329 465 q 264 404 300 449 q 218 338 239 372 q 183 243 186 282 q 181 157 182 200 q 178 63 179 142 q 172 28 178 39 q 114 -4 156 0 q 49 14 72 -8 q 38 28 42 21 q 32 46 33 36 q 31 63 31 56 q 31 83 31 69 q 32 100 32 96 q 39 281 33 192 q 51 438 40 289 q 53 460 53 453 q 56 481 54 467 q 62 504 58 496 q 72 523 65 513 q 86 540 78 533 q 124 556 101 553 q 164 551 146 558 q 200 476 199 536 q 344 554 267 549 q 468 501 424 557 z "},"o":{"ha":474,"x_min":24,"x_max":485,"o":"m 385 531 q 436 232 483 447 q 385 86 418 150 q 292 -6 351 22 q 215 -21 256 -22 q 140 0 175 -19 q 49 138 75 39 q 28 356 25 229 q 32 403 29 385 q 37 424 32 408 q 40 447 42 439 q 40 463 40 460 q 42 474 40 467 q 47 487 43 482 q 56 499 50 492 q 57 499 57 499 l 58 499 q 160 557 106 536 q 277 574 215 578 q 385 531 339 569 m 319 267 q 326 414 340 360 q 268 476 313 471 q 179 446 238 481 q 179 390 183 426 q 175 319 175 360 q 190 168 175 231 q 217 104 200 128 q 227 94 224 94 q 242 103 231 93 q 265 131 253 111 q 319 267 299 179 z "},"ò":{"ha":474,"x_min":24,"x_max":485,"o":"m 385 531 q 436 232 483 447 q 385 86 418 150 q 292 -6 351 22 q 215 -21 256 -22 q 140 0 175 -19 q 49 138 75 39 q 28 356 25 229 q 32 403 29 385 q 37 424 32 408 q 40 447 42 439 q 40 463 40 460 q 42 474 40 467 q 47 487 43 482 q 56 499 50 492 q 57 499 57 499 l 58 499 q 160 557 106 536 q 277 574 215 578 q 385 531 339 569 m 319 267 q 326 414 340 360 q 268 476 313 471 q 179 446 238 481 q 179 390 183 426 q 175 319 175 360 q 190 168 175 231 q 217 104 200 128 q 227 94 224 94 q 242 103 231 93 q 265 131 253 111 q 319 267 299 179 z "},"ó":{"ha":474,"x_min":24,"x_max":485,"o":"m 385 531 q 436 232 483 447 q 385 86 418 150 q 292 -6 351 22 q 215 -21 256 -22 q 140 0 175 -19 q 49 138 75 39 q 28 356 25 229 q 32 403 29 385 q 37 424 32 408 q 40 447 42 439 q 40 463 40 460 q 42 474 40 467 q 47 487 43 482 q 56 499 50 492 q 57 499 57 499 l 58 499 q 160 557 106 536 q 277 574 215 578 q 385 531 339 569 m 319 267 q 326 414 340 360 q 268 476 313 471 q 179 446 238 481 q 179 390 183 426 q 175 319 175 360 q 190 168 175 231 q 217 104 200 128 q 227 94 224 94 q 242 103 231 93 q 265 131 253 111 q 319 267 299 179 z "},"ô":{"ha":474,"x_min":24,"x_max":485,"o":"m 385 531 q 436 232 483 447 q 385 86 418 150 q 292 -6 351 22 q 215 -21 256 -22 q 140 0 175 -19 q 49 138 75 39 q 28 356 25 229 q 32 403 29 385 q 37 424 32 408 q 40 447 42 439 q 40 463 40 460 q 42 474 40 467 q 47 487 43 482 q 56 499 50 492 q 57 499 57 499 l 58 499 q 160 557 106 536 q 277 574 215 578 q 385 531 339 569 m 319 267 q 326 414 340 360 q 268 476 313 471 q 179 446 238 481 q 179 390 183 426 q 175 319 175 360 q 190 168 175 231 q 217 104 200 128 q 227 94 224 94 q 242 103 231 93 q 265 131 253 111 q 319 267 299 179 z "},"õ":{"ha":474,"x_min":24,"x_max":485,"o":"m 385 531 q 436 232 483 447 q 385 86 418 150 q 292 -6 351 22 q 215 -21 256 -22 q 140 0 175 -19 q 49 138 75 39 q 28 356 25 229 q 32 403 29 385 q 37 424 32 408 q 40 447 42 439 q 40 463 40 460 q 42 474 40 467 q 47 487 43 482 q 56 499 50 492 q 57 499 57 499 l 58 499 q 160 557 106 536 q 277 574 215 578 q 385 531 339 569 m 319 267 q 326 414 340 360 q 268 476 313 471 q 179 446 238 481 q 179 390 183 426 q 175 319 175 360 q 190 168 175 231 q 217 104 200 128 q 227 94 224 94 q 242 103 231 93 q 265 131 253 111 q 319 267 299 179 z "},"ö":{"ha":474,"x_min":24,"x_max":485,"o":"m 385 531 q 436 232 483 447 q 385 86 418 150 q 292 -6 351 22 q 215 -21 256 -22 q 140 0 175 -19 q 49 138 75 39 q 28 356 25 229 q 32 403 29 385 q 37 424 32 408 q 40 447 42 439 q 40 463 40 460 q 42 474 40 467 q 47 487 43 482 q 56 499 50 492 q 57 499 57 499 l 58 499 q 160 557 106 536 q 277 574 215 578 q 385 531 339 569 m 319 267 q 326 414 340 360 q 268 476 313 471 q 179 446 238 481 q 179 390 183 426 q 175 319 175 360 q 190 168 175 231 q 217 104 200 128 q 227 94 224 94 q 242 103 231 93 q 265 131 253 111 q 319 267 299 179 z "},"ø":{"ha":474,"x_min":24,"x_max":485,"o":"m 385 531 q 436 232 483 447 q 385 86 418 150 q 292 -6 351 22 q 215 -21 256 -22 q 140 0 175 -19 q 49 138 75 39 q 28 356 25 229 q 32 403 29 385 q 37 424 32 408 q 40 447 42 439 q 40 463 40 460 q 42 474 40 467 q 47 487 43 482 q 56 499 50 492 q 57 499 57 499 l 58 499 q 160 557 106 536 q 277 574 215 578 q 385 531 339 569 m 319 267 q 326 414 340 360 q 268 476 313 471 q 179 446 238 481 q 179 390 183 426 q 175 319 175 360 q 190 168 175 231 q 217 104 200 128 q 227 94 224 94 q 242 103 231 93 q 265 131 253 111 q 319 267 299 179 z "},"p":{"ha":533,"x_min":36,"x_max":519,"o":"m 425 475 q 495 383 472 442 q 515 262 518 324 q 486 149 511 200 q 360 28 446 68 q 185 1 275 -12 l 183 -232 q 183 -347 183 -269 q 183 -360 183 -351 q 184 -373 183 -368 q 184 -385 185 -378 q 182 -397 183 -392 q 177 -408 181 -403 q 169 -418 174 -414 q 114 -442 149 -442 q 56 -424 79 -443 q 36 -376 36 -408 q 36 -269 36 -375 q 39 151 38 64 q 39 356 39 331 q 46 468 40 422 q 60 513 50 501 q 97 535 74 531 q 140 532 119 540 q 171 506 163 524 q 182 457 179 488 q 249 496 211 482 q 425 475 347 531 m 310 139 q 368 283 371 190 q 358 343 367 313 q 326 396 349 374 q 272 408 303 418 q 220 368 243 400 q 188 303 197 336 q 184 275 185 290 q 185 239 183 260 q 186 211 186 218 q 186 124 186 174 q 210 115 189 122 q 210 115 210 115 q 310 139 264 104 z "},"q":{"ha":524,"x_min":15,"x_max":488,"o":"m 479 -71 q 482 -279 479 -175 q 483 -315 482 -292 q 485 -351 485 -339 q 485 -387 486 -364 q 474 -419 483 -407 q 401 -442 450 -447 q 340 -400 351 -437 q 335 -374 336 -389 q 335 -340 335 -360 q 336 -314 336 -321 q 333 -214 335 -264 q 332 -14 332 -119 q 215 -38 278 -42 q 104 3 153 -35 q 37 98 57 39 q 19 215 17 157 q 39 332 22 274 q 170 518 75 450 q 379 551 265 586 q 431 560 401 567 q 473 531 460 554 q 486 454 486 507 q 485 351 488 431 q 479 -71 478 114 m 339 371 q 341 396 339 375 q 342 428 343 417 q 340 440 342 438 q 329 446 338 442 q 308 449 321 449 q 172 263 206 433 q 171 146 158 194 q 183 112 175 128 q 208 84 192 96 q 242 75 224 72 q 314 126 274 90 q 333 150 332 142 q 335 158 335 153 q 334 170 335 164 q 333 179 333 176 q 335 240 335 211 q 339 371 336 321 z "},"r":{"ha":450,"x_min":28,"x_max":451,"o":"m 381 488 q 433 426 415 465 q 433 349 451 388 q 363 317 413 315 q 299 358 313 319 q 295 372 296 363 q 293 388 294 381 q 288 403 292 396 q 276 410 283 410 q 235 382 267 411 q 196 332 207 356 q 190 316 192 325 q 189 299 189 307 q 189 281 189 290 q 189 264 189 271 q 182 124 188 249 q 176 6 178 14 q 133 -54 171 -37 q 60 -47 96 -71 q 31 21 29 -26 q 34 94 32 46 q 36 158 36 143 q 47 425 47 411 q 50 468 49 453 q 58 507 51 483 q 78 543 64 531 q 115 558 93 556 q 172 544 150 564 q 196 481 192 526 q 219 494 207 489 q 301 512 257 514 q 381 488 344 510 z "},"s":{"ha":443,"x_min":8,"x_max":431,"o":"m 228 440 q 208 399 207 422 q 223 355 210 375 q 256 322 236 335 q 290 300 264 317 q 328 274 317 283 q 358 249 340 265 q 384 215 375 233 q 397 175 393 197 q 378 83 404 128 q 310 8 353 38 q 125 -31 222 -54 q 42 18 76 -19 q 8 104 8 56 q 36 176 8 146 q 106 201 64 206 q 158 174 143 197 q 158 123 167 160 q 168 78 150 86 q 190 78 178 75 q 211 91 201 82 q 229 109 221 100 q 242 126 238 118 q 193 236 275 183 q 86 372 96 300 q 142 520 72 464 q 300 556 211 576 q 383 504 349 542 q 422 415 417 467 q 407 338 429 360 q 346 319 386 318 q 294 339 313 322 q 285 353 288 346 q 281 365 282 360 q 281 381 281 371 q 279 396 281 390 q 256 450 276 439 q 228 440 244 456 z "},"t":{"ha":303,"x_min":-78,"x_max":315,"o":"m 299 557 q 280 548 290 551 q 256 544 269 544 q 232 545 242 544 q 206 548 222 546 q 185 551 190 550 q 189 175 169 339 q 210 97 194 119 q 253 74 221 81 q 290 53 275 69 q 298 15 306 36 q 266 -18 290 -6 q 217 -32 242 -31 q 120 3 168 -33 q 56 97 72 40 q 36 232 39 154 q 38 557 28 417 q 29 557 35 557 q -3 557 15 556 q -39 561 -22 558 q -66 574 -56 564 q -75 600 -76 583 q -71 614 -74 608 q -62 624 -68 619 q -50 631 -56 628 q -35 636 -44 635 q -18 638 -25 638 q 0 639 -11 639 q 16 639 11 639 q 32 638 21 639 q 46 638 43 638 q 48 668 46 643 q 51 704 50 693 q 57 738 53 715 q 67 773 61 761 q 83 799 74 785 q 106 820 92 814 q 139 826 121 826 q 168 821 154 826 q 192 803 182 815 q 206 776 203 792 q 203 711 208 756 q 192 632 196 669 q 207 631 194 632 q 224 630 219 631 q 239 628 228 629 q 256 626 250 628 q 270 623 261 625 q 286 618 279 621 q 300 611 293 615 q 301 610 300 611 q 314 583 315 599 q 299 557 313 567 z "},"u":{"ha":522,"x_min":29,"x_max":489,"o":"m 483 474 q 486 353 489 440 q 483 275 486 325 q 481 204 481 225 q 472 60 476 107 q 472 43 472 54 q 470 25 471 32 q 467 8 469 18 q 463 -8 465 -1 q 456 -23 461 -15 q 444 -36 450 -31 q 358 -44 407 -64 q 322 7 325 -32 q 174 -54 256 -62 q 95 -19 128 -49 q 49 56 63 11 q 33 167 35 101 q 33 281 31 232 q 39 399 33 318 q 56 493 43 467 q 92 527 65 518 q 146 528 119 536 q 182 502 171 521 q 192 463 193 483 q 189 417 190 442 q 179 182 176 307 q 199 64 182 94 q 226 64 206 51 q 250 82 238 71 q 285 117 268 97 q 317 163 300 135 q 333 219 331 183 q 339 343 335 235 q 341 378 340 351 q 342 420 342 406 q 347 457 343 435 q 356 497 350 479 q 372 528 363 514 q 374 529 372 528 q 406 547 386 543 q 443 544 425 551 q 483 474 474 532 z "},"ù":{"ha":522,"x_min":29,"x_max":489,"o":"m 483 474 q 486 353 489 440 q 483 275 486 325 q 481 204 481 225 q 472 60 476 107 q 472 43 472 54 q 470 25 471 32 q 467 8 469 18 q 463 -8 465 -1 q 456 -23 461 -15 q 444 -36 450 -31 q 358 -44 407 -64 q 322 7 325 -32 q 174 -54 256 -62 q 95 -19 128 -49 q 49 56 63 11 q 33 167 35 101 q 33 281 31 232 q 39 399 33 318 q 56 493 43 467 q 92 527 65 518 q 146 528 119 536 q 182 502 171 521 q 192 463 193 483 q 189 417 190 442 q 179 182 176 307 q 199 64 182 94 q 226 64 206 51 q 250 82 238 71 q 285 117 268 97 q 317 163 300 135 q 333 219 331 183 q 339 343 335 235 q 341 378 340 351 q 342 420 342 406 q 347 457 343 435 q 356 497 350 479 q 372 528 363 514 q 374 529 372 528 q 406 547 386 543 q 443 544 425 551 q 483 474 474 532 z "},"ú":{"ha":522,"x_min":29,"x_max":489,"o":"m 483 474 q 486 353 489 440 q 483 275 486 325 q 481 204 481 225 q 472 60 476 107 q 472 43 472 54 q 470 25 471 32 q 467 8 469 18 q 463 -8 465 -1 q 456 -23 461 -15 q 444 -36 450 -31 q 358 -44 407 -64 q 322 7 325 -32 q 174 -54 256 -62 q 95 -19 128 -49 q 49 56 63 11 q 33 167 35 101 q 33 281 31 232 q 39 399 33 318 q 56 493 43 467 q 92 527 65 518 q 146 528 119 536 q 182 502 171 521 q 192 463 193 483 q 189 417 190 442 q 179 182 176 307 q 199 64 182 94 q 226 64 206 51 q 250 82 238 71 q 285 117 268 97 q 317 163 300 135 q 333 219 331 183 q 339 343 335 235 q 341 378 340 351 q 342 420 342 406 q 347 457 343 435 q 356 497 350 479 q 372 528 363 514 q 374 529 372 528 q 406 547 386 543 q 443 544 425 551 q 483 474 474 532 z "},"û":{"ha":522,"x_min":29,"x_max":489,"o":"m 483 474 q 486 353 489 440 q 483 275 486 325 q 481 204 481 225 q 472 60 476 107 q 472 43 472 54 q 470 25 471 32 q 467 8 469 18 q 463 -8 465 -1 q 456 -23 461 -15 q 444 -36 450 -31 q 358 -44 407 -64 q 322 7 325 -32 q 174 -54 256 -62 q 95 -19 128 -49 q 49 56 63 11 q 33 167 35 101 q 33 281 31 232 q 39 399 33 318 q 56 493 43 467 q 92 527 65 518 q 146 528 119 536 q 182 502 171 521 q 192 463 193 483 q 189 417 190 442 q 179 182 176 307 q 199 64 182 94 q 226 64 206 51 q 250 82 238 71 q 285 117 268 97 q 317 163 300 135 q 333 219 331 183 q 339 343 335 235 q 341 378 340 351 q 342 420 342 406 q 347 457 343 435 q 356 497 350 479 q 372 528 363 514 q 374 529 372 528 q 406 547 386 543 q 443 544 425 551 q 483 474 474 532 z "},"ü":{"ha":522,"x_min":29,"x_max":489,"o":"m 483 474 q 486 353 489 440 q 483 275 486 325 q 481 204 481 225 q 472 60 476 107 q 472 43 472 54 q 470 25 471 32 q 467 8 469 18 q 463 -8 465 -1 q 456 -23 461 -15 q 444 -36 450 -31 q 358 -44 407 -64 q 322 7 325 -32 q 174 -54 256 -62 q 95 -19 128 -49 q 49 56 63 11 q 33 167 35 101 q 33 281 31 232 q 39 399 33 318 q 56 493 43 467 q 92 527 65 518 q 146 528 119 536 q 182 502 171 521 q 192 463 193 483 q 189 417 190 442 q 179 182 176 307 q 199 64 182 94 q 226 64 206 51 q 250 82 238 71 q 285 117 268 97 q 317 163 300 135 q 333 219 331 183 q 339 343 335 235 q 341 378 340 351 q 342 420 342 406 q 347 457 343 435 q 356 497 350 479 q 372 528 363 514 q 374 529 372 528 q 406 547 386 543 q 443 544 425 551 q 483 474 474 532 z "},"v":{"ha":506,"x_min":1,"x_max":504,"o":"m 500 485 q 500 461 504 474 q 485 430 496 449 q 472 408 474 411 q 379 188 419 303 q 346 86 361 138 q 340 63 344 81 q 332 35 336 46 q 321 15 328 24 q 265 -8 300 -7 q 207 10 229 -10 q 192 27 199 17 q 183 46 186 38 q 174 68 179 54 q 167 88 169 82 q 126 186 139 156 q 36 401 40 393 q 26 424 35 404 q 14 452 17 443 q 6 477 11 461 q 4 505 1 493 q 15 528 7 517 q 55 552 29 546 q 101 550 81 558 q 124 538 114 546 q 142 515 135 529 q 155 491 150 500 q 167 463 160 482 q 175 439 174 443 q 253 253 186 411 q 336 436 290 349 q 352 466 349 460 q 368 490 356 472 q 390 513 381 507 q 414 523 399 518 q 447 525 429 528 q 449 524 449 525 q 451 524 450 524 q 500 485 490 513 z "},"w":{"ha":729,"x_min":24,"x_max":718,"o":"m 715 469 q 708 418 718 458 q 700 385 706 407 q 692 353 694 364 q 626 81 629 92 q 596 8 614 26 q 513 -14 564 -22 q 408 39 471 -6 q 326 114 365 69 q 256 13 296 38 q 149 -3 206 -19 q 105 24 124 6 q 76 60 86 42 q 57 108 65 78 q 46 157 49 139 q 39 207 43 175 q 38 219 38 215 q 26 381 24 314 q 27 392 26 382 q 28 406 28 403 q 28 420 28 410 q 30 435 29 431 q 32 448 31 439 q 35 463 33 457 q 40 475 38 468 q 47 487 43 482 q 53 496 50 492 q 121 515 78 522 q 174 471 164 507 q 176 399 178 457 q 175 315 175 317 q 196 156 176 238 q 225 219 214 190 q 235 253 229 229 q 244 288 240 276 q 272 315 251 306 q 315 324 293 324 q 328 322 322 324 q 340 319 335 321 q 350 314 344 318 q 358 308 356 310 q 366 300 361 306 q 373 292 371 294 q 379 283 375 290 q 385 273 383 275 q 391 262 386 271 q 397 251 396 253 q 490 136 436 182 q 558 413 514 228 q 562 430 560 418 q 566 451 564 442 q 571 469 568 460 q 579 488 574 479 q 592 501 585 496 q 664 515 619 524 q 665 515 665 515 q 715 469 710 503 z "},"x":{"ha":418,"x_min":4,"x_max":411,"o":"m 342 151 q 363 127 346 146 q 389 93 379 108 q 400 63 399 78 q 378 14 406 32 q 318 0 350 -4 q 303 5 311 1 q 289 12 296 8 q 275 21 282 15 q 263 31 268 26 q 250 44 257 36 q 240 58 243 53 q 229 72 236 63 q 219 86 222 82 q 210 100 217 90 q 200 113 203 110 q 163 46 169 57 q 153 26 160 40 q 140 1 146 11 q 126 -19 133 -10 q 85 -43 110 -39 q 39 -33 60 -47 q 33 40 4 -11 q 57 84 43 60 q 85 133 71 108 q 111 176 100 158 q 117 187 113 179 q 126 201 122 194 q 131 211 131 207 q 117 242 132 217 q 81 308 99 274 q 68 331 78 313 q 53 358 58 350 q 42 382 49 367 q 30 410 35 397 q 21 436 25 422 q 29 508 6 485 q 97 528 56 533 q 131 511 118 524 q 156 476 143 499 q 185 414 167 454 q 213 357 204 374 q 235 400 218 367 q 262 449 253 433 q 288 488 271 464 q 321 528 304 511 q 322 528 322 528 q 383 532 349 549 q 396 472 410 518 q 339 361 382 431 q 282 261 296 292 q 288 229 276 246 q 304 203 296 217 q 342 151 322 178 z "},"y":{"ha":553,"x_min":26,"x_max":521,"o":"m 519 424 q 515 290 519 397 q 501 36 511 150 q 471 -190 486 -132 q 381 -339 446 -290 q 214 -381 313 -390 q 58 -311 107 -369 q 63 -266 39 -286 q 117 -247 88 -246 q 172 -256 136 -249 q 217 -267 207 -264 q 279 -258 258 -272 q 315 -210 299 -246 q 328 -176 322 -193 q 337 -134 333 -158 q 342 -98 340 -110 q 346 -54 343 -86 q 349 -18 349 -22 q 204 -33 283 -47 q 79 39 125 -19 q 43 105 56 68 q 29 189 31 142 q 29 265 28 236 q 35 344 31 293 q 47 432 39 390 q 49 444 47 435 q 51 458 50 453 q 55 472 53 464 q 60 485 57 479 q 67 496 63 492 q 106 518 81 513 q 151 517 132 524 q 190 493 176 508 q 196 444 201 479 q 176 254 179 329 q 176 208 175 235 q 179 158 176 182 q 194 113 182 135 q 225 82 206 92 q 261 75 240 71 q 294 88 282 79 q 326 107 307 96 q 361 122 346 118 q 371 324 365 199 q 372 366 371 335 q 373 414 372 397 q 378 456 374 431 q 389 500 382 481 q 390 501 390 500 q 440 534 404 529 q 497 515 476 539 q 519 424 518 493 z "},"ý":{"ha":553,"x_min":26,"x_max":521,"o":"m 519 424 q 515 290 519 397 q 501 36 511 150 q 471 -190 486 -132 q 381 -339 446 -290 q 214 -381 313 -390 q 58 -311 107 -369 q 63 -266 39 -286 q 117 -247 88 -246 q 172 -256 136 -249 q 217 -267 207 -264 q 279 -258 258 -272 q 315 -210 299 -246 q 328 -176 322 -193 q 337 -134 333 -158 q 342 -98 340 -110 q 346 -54 343 -86 q 349 -18 349 -22 q 204 -33 283 -47 q 79 39 125 -19 q 43 105 56 68 q 29 189 31 142 q 29 265 28 236 q 35 344 31 293 q 47 432 39 390 q 49 444 47 435 q 51 458 50 453 q 55 472 53 464 q 60 485 57 479 q 67 496 63 492 q 106 518 81 513 q 151 517 132 524 q 190 493 176 508 q 196 444 201 479 q 176 254 179 329 q 176 208 175 235 q 179 158 176 182 q 194 113 182 135 q 225 82 206 92 q 261 75 240 71 q 294 88 282 79 q 326 107 307 96 q 361 122 346 118 q 371 324 365 199 q 372 366 371 335 q 373 414 372 397 q 378 456 374 431 q 389 500 382 481 q 390 501 390 500 q 440 534 404 529 q 497 515 476 539 q 519 424 518 493 z "},"ÿ":{"ha":553,"x_min":26,"x_max":521,"o":"m 519 424 q 515 290 519 397 q 501 36 511 150 q 471 -190 486 -132 q 381 -339 446 -290 q 214 -381 313 -390 q 58 -311 107 -369 q 63 -266 39 -286 q 117 -247 88 -246 q 172 -256 136 -249 q 217 -267 207 -264 q 279 -258 258 -272 q 315 -210 299 -246 q 328 -176 322 -193 q 337 -134 333 -158 q 342 -98 340 -110 q 346 -54 343 -86 q 349 -18 349 -22 q 204 -33 283 -47 q 79 39 125 -19 q 43 105 56 68 q 29 189 31 142 q 29 265 28 236 q 35 344 31 293 q 47 432 39 390 q 49 444 47 435 q 51 458 50 453 q 55 472 53 464 q 60 485 57 479 q 67 496 63 492 q 106 518 81 513 q 151 517 132 524 q 190 493 176 508 q 196 444 201 479 q 176 254 179 329 q 176 208 175 235 q 179 158 176 182 q 194 113 182 135 q 225 82 206 92 q 261 75 240 71 q 294 88 282 79 q 326 107 307 96 q 361 122 346 118 q 371 324 365 199 q 372 366 371 335 q 373 414 372 397 q 378 456 374 431 q 389 500 382 481 q 390 501 390 500 q 440 534 404 529 q 497 515 476 539 q 519 424 518 493 z "},"z":{"ha":483,"x_min":6,"x_max":486,"o":"m 478 38 q 480 4 485 21 q 461 -24 475 -12 q 419 -38 443 -36 q 375 -37 396 -40 q 233 -35 304 -33 q 166 -39 213 -35 q 96 -43 119 -43 q 38 -18 63 -43 q 29 35 14 4 q 50 74 39 54 q 76 119 61 94 q 97 158 90 144 q 163 276 119 197 q 226 394 206 356 q 89 410 193 400 q 58 415 71 413 q 31 426 46 417 q 11 449 15 435 q 10 471 6 460 q 22 490 14 482 q 40 503 29 497 q 139 515 68 515 q 268 503 193 514 q 289 500 274 501 q 312 497 304 499 q 332 493 319 496 q 354 486 344 490 q 372 476 364 482 q 401 426 407 456 q 397 413 400 421 q 390 400 393 406 q 381 386 386 394 q 374 374 376 378 q 358 344 368 364 q 342 314 347 324 q 276 196 319 275 q 211 78 233 117 q 408 74 311 81 q 478 38 463 68 z "},"{":{"ha":488,"x_min":69,"x_max":600,"o":"m 553 1203 q 590 1161 600 1188 q 550 1125 583 1143 q 511 1103 517 1107 q 486 1074 497 1090 q 469 1041 475 1058 q 458 1007 463 1024 q 452 969 454 990 q 449 933 450 949 q 448 894 449 917 q 447 858 447 872 q 386 670 439 758 q 246 517 333 582 q 413 286 369 419 q 435 132 431 231 q 478 -36 439 15 q 543 -86 492 -57 q 576 -118 572 -104 q 569 -142 579 -132 q 544 -157 558 -153 q 517 -162 529 -161 q 401 -123 454 -165 q 322 -22 347 -81 q 292 117 300 25 q 275 244 285 210 q 131 457 239 374 q 113 468 125 461 q 95 480 101 475 q 80 494 89 485 q 71 510 71 503 q 72 531 71 518 q 107 561 78 546 q 164 604 132 576 q 296 822 267 692 q 309 938 299 839 q 346 1086 319 1038 q 433 1178 378 1142 q 550 1204 489 1215 q 552 1203 551 1204 q 553 1203 553 1203 z "},"|":{"ha":244,"x_min":47,"x_max":200,"o":"m 197 1075 q 198 996 197 1054 q 197 915 199 938 q 194 553 197 776 q 189 231 192 385 q 185 68 186 146 q 183 -14 183 26 q 183 -33 182 -19 q 183 -58 183 -47 q 181 -78 182 -69 q 133 -115 172 -107 q 71 -106 94 -122 q 53 -86 58 -99 q 47 -68 47 -74 q 47 -42 47 -62 q 47 118 47 26 q 54 758 49 300 q 58 922 54 815 q 61 1068 61 1028 q 61 1081 61 1069 q 62 1094 61 1092 q 63 1106 63 1096 q 65 1119 64 1115 q 67 1131 65 1124 q 70 1144 68 1139 q 76 1155 72 1149 q 85 1167 79 1161 q 122 1187 99 1183 q 164 1178 144 1190 q 165 1176 165 1176 q 197 1075 199 1147 z "},"}":{"ha":486,"x_min":-106,"x_max":429,"o":"m 396 553 q 411 499 429 528 q 382 475 407 492 q 336 440 358 460 q 222 279 258 374 q 200 167 206 235 q 183 38 194 99 q 139 -68 171 -22 q -1 -160 81 -147 q -67 -153 -31 -165 q -86 -111 -103 -140 q -67 -92 -81 -100 q -37 -75 -54 -83 q -12 -61 -21 -67 q 39 26 24 -31 q 52 134 50 64 q 60 232 54 204 q 240 517 89 397 q 113 650 164 574 q 44 813 61 726 q 38 906 40 842 q 29 1001 36 969 q -22 1100 15 1065 q -56 1123 -32 1110 q -90 1144 -81 1136 q -104 1168 -104 1157 q -94 1188 -104 1179 q -69 1201 -83 1196 q -42 1207 -54 1207 q 104 1136 38 1208 q 172 989 158 1078 q 180 907 175 967 q 193 815 185 847 q 265 665 213 733 q 394 554 317 597 q 396 553 396 553 z "},"~":{"ha":565,"x_min":13,"x_max":553,"o":"m 550 506 q 517 456 551 488 q 444 404 488 429 q 293 368 365 358 q 224 393 257 374 q 192 417 219 394 q 151 440 165 440 q 117 422 135 440 q 92 399 99 403 q 56 394 76 392 q 25 407 38 396 q 18 435 13 418 q 45 476 24 457 q 92 507 67 496 q 200 522 143 531 q 258 506 231 519 q 272 499 264 503 q 285 491 279 494 q 299 483 292 488 q 313 476 306 479 q 328 472 321 474 q 362 470 349 469 q 394 480 375 471 q 423 496 413 489 q 451 515 433 503 q 479 532 468 526 q 481 533 479 533 q 483 533 482 533 q 524 533 501 542 q 550 506 547 525 z "}," ":{"ha":365,"x_min":0,"x_max":0,"o":""},"­":{"ha":0,"x_min":0,"x_max":0,"o":""},"‘":{"ha":224,"x_min":18,"x_max":201,"o":"m 136 1007 q 200 864 201 981 q 144 703 199 765 q 109 674 131 686 q 63 660 88 661 q 24 682 38 660 q 20 696 21 689 q 20 708 19 703 q 25 722 21 714 q 31 735 29 731 q 39 748 33 739 q 46 758 44 757 q 71 910 88 831 q 65 931 69 914 q 60 956 61 949 q 60 976 58 964 q 71 999 63 989 q 135 1007 92 1021 q 136 1007 136 1007 z "},"’":{"ha":224,"x_min":18,"x_max":201,"o":"m 136 1007 q 200 864 201 981 q 144 703 199 765 q 109 674 131 686 q 63 660 88 661 q 24 682 38 660 q 20 696 21 689 q 20 708 19 703 q 25 722 21 714 q 31 735 29 731 q 39 748 33 739 q 46 758 44 757 q 71 910 88 831 q 65 931 69 914 q 60 956 61 949 q 60 976 58 964 q 71 999 63 989 q 135 1007 92 1021 q 136 1007 136 1007 z "},"‚":{"ha":226,"x_min":19,"x_max":203,"o":"m 138 383 q 201 240 203 356 q 146 79 200 142 q 110 49 132 63 q 64 36 89 36 q 25 58 39 36 q 22 69 22 64 q 22 81 21 75 q 24 92 22 88 q 28 104 25 97 q 34 115 32 111 q 40 125 36 118 q 47 135 44 132 q 72 286 89 207 q 67 303 71 292 q 63 322 64 315 q 60 340 61 329 q 63 358 60 350 q 72 375 65 367 q 136 383 93 397 q 138 383 138 383 z "},"“":{"ha":411,"x_min":18,"x_max":389,"o":"m 324 1007 q 386 864 388 981 q 332 703 386 765 q 296 674 318 686 q 249 660 274 661 q 211 682 224 660 q 206 696 207 689 q 206 708 206 703 q 211 722 207 714 q 217 735 215 731 q 225 748 219 739 q 232 758 231 757 q 257 910 275 831 q 252 931 257 914 q 246 956 247 949 q 247 976 244 964 q 258 999 250 989 q 322 1007 279 1021 q 324 1007 322 1007 m 136 1007 q 200 864 201 981 q 144 703 199 765 q 109 674 131 686 q 63 660 88 661 q 24 682 38 660 q 20 696 21 689 q 20 708 19 703 q 25 722 21 714 q 31 735 29 731 q 39 748 33 739 q 46 758 44 757 q 71 910 88 831 q 66 927 69 915 q 61 947 63 939 q 59 964 60 954 q 61 983 58 974 q 71 999 64 992 q 135 1007 92 1021 q 136 1007 136 1007 z "},"”":{"ha":411,"x_min":18,"x_max":389,"o":"m 324 1007 q 386 864 388 981 q 332 703 386 765 q 296 674 318 686 q 249 660 274 661 q 211 682 224 660 q 206 696 207 689 q 206 708 206 703 q 211 722 207 714 q 217 735 215 731 q 225 748 219 739 q 232 758 231 757 q 257 910 275 831 q 252 931 257 914 q 246 956 247 949 q 247 976 244 964 q 258 999 250 989 q 322 1007 279 1021 q 324 1007 322 1007 m 136 1007 q 200 864 201 981 q 144 703 199 765 q 109 674 131 686 q 63 660 88 661 q 24 682 38 660 q 20 696 21 689 q 20 708 19 703 q 25 722 21 714 q 31 735 29 731 q 39 748 33 739 q 46 758 44 757 q 71 910 88 831 q 66 927 69 915 q 61 947 63 939 q 59 964 60 954 q 61 983 58 974 q 71 999 64 992 q 135 1007 92 1021 q 136 1007 136 1007 z "},"„":{"ha":414,"x_min":19,"x_max":390,"o":"m 325 383 q 388 240 389 356 q 333 79 388 142 q 297 49 319 63 q 250 36 275 36 q 213 58 225 36 q 208 69 210 64 q 208 81 207 75 q 210 92 208 88 q 215 104 211 97 q 222 115 219 111 q 228 125 224 118 q 233 135 232 132 q 258 286 276 207 q 254 303 257 292 q 249 322 251 315 q 247 340 247 329 q 249 358 246 350 q 260 375 253 367 q 324 383 281 397 q 325 383 324 383 m 138 383 q 201 240 203 356 q 146 79 200 142 q 110 49 132 63 q 64 36 89 36 q 25 58 39 36 q 22 69 22 64 q 22 81 21 75 q 24 92 22 88 q 28 104 25 97 q 34 115 32 111 q 40 125 36 118 q 47 135 44 132 q 72 286 89 207 q 67 303 71 292 q 63 322 64 315 q 60 340 61 329 q 63 358 60 350 q 72 375 65 367 q 136 383 93 397 q 138 383 138 383 z "}}}
